<svg width="24" height="24" viewBox="0 0 24 24" fill="none" xmlns="http://www.w3.org/2000/svg">
<path fill-rule="evenodd" clip-rule="evenodd" d="M8.32473 6.99841L6.81709 4.94255C6.71457 4.80274 6.52082 4.76711 6.37526 4.86129C4.40284 6.13757 3.86065 8.08717 4.65198 9.52437C5.5174 11.0961 6.85216 13.0237 8.89953 15.0711C10.9469 17.1185 12.8745 18.4532 14.4463 19.3187C15.8835 20.11 17.8331 19.5678 19.1093 17.5954C19.2035 17.4498 19.1679 17.2561 19.0281 17.1535L16.9722 15.6459C16.6699 15.4242 16.269 15.3902 15.9336 15.5579L15.1142 15.9676C14.4172 16.3161 13.4618 16.4385 12.5574 15.9732C11.9527 15.6622 11.0207 15.071 9.96019 14.0104C8.89964 12.9499 8.30847 12.0179 7.99739 11.4133C7.5321 10.5089 7.65453 9.55342 8.00302 8.85644L8.41275 8.03699C8.58041 7.70167 8.54643 7.30073 8.32473 6.99841ZM5.28876 3.18215C2.74825 4.82601 1.44049 7.83829 2.89999 10.489C3.85252 12.219 5.29935 14.2994 7.48531 16.4853C9.67127 18.6713 11.7516 20.1181 13.4816 21.0706C16.1323 22.5301 19.1446 21.2224 20.7885 18.6819C21.4581 17.647 21.2048 16.2696 20.2108 15.5407L18.1549 14.0331C17.248 13.368 16.0452 13.266 15.0392 13.769L14.2198 14.1788C13.9825 14.2974 13.7081 14.3161 13.4723 14.1948C13.0426 13.9737 12.2812 13.503 11.3744 12.5962C10.4676 11.6894 9.99689 10.928 9.77584 10.4983C9.65451 10.2625 9.67327 9.98809 9.79187 9.75087L10.2016 8.93142C10.7046 7.92545 10.6026 6.72265 9.93754 5.81569L8.4299 3.75982C7.70101 2.76588 6.32359 2.51256 5.28876 3.18215Z" fill="#D1D3D4"/>
</svg>
