<svg width="11" height="13" viewBox="0 0 11 13" fill="none" xmlns="http://www.w3.org/2000/svg">
<path d="M4.30621 0.953489C4.65732 -0.317828 6.08582 -0.31783 6.43693 0.953487L6.97015 2.88423C7.12504 3.44506 7.54088 3.82532 8.01253 3.83742L9.63624 3.87906C10.7054 3.90649 11.1468 5.61643 10.2947 6.42957L9.0005 7.66448C8.62458 8.02319 8.46574 8.63847 8.60235 9.20678L9.07263 11.1633C9.3823 12.4515 8.22662 13.5083 7.34885 12.7396L6.0158 11.572C5.62858 11.2329 5.11457 11.2329 4.72735 11.572L3.39429 12.7396C2.51653 13.5083 1.36084 12.4515 1.67051 11.1633L2.14079 9.20678C2.2774 8.63847 2.11856 8.02319 1.74264 7.66448L0.448482 6.42957C-0.403671 5.61643 0.0377596 3.90649 1.10691 3.87906L2.73061 3.83742C3.20226 3.82532 3.6181 3.44506 3.77299 2.88423L4.30621 0.953489Z" fill="white"/>
</svg>
