<svg width="20" height="20" viewBox="0 0 20 20" fill="none" xmlns="http://www.w3.org/2000/svg">
<path d="M5.58921 4.41083C5.26378 4.08539 4.73614 4.08539 4.4107 4.41083C4.08527 4.73626 4.08527 5.2639 4.4107 5.58934L8.82146 10.0001L4.41073 14.4108C4.08529 14.7363 4.08529 15.2639 4.41073 15.5893C4.73616 15.9148 5.2638 15.9148 5.58924 15.5893L9.99997 11.1786L14.4107 15.5893C14.7361 15.9148 15.2638 15.9148 15.5892 15.5893C15.9147 15.2639 15.9147 14.7363 15.5892 14.4108L11.1785 10.0001L15.5892 5.58934C15.9147 5.2639 15.9147 4.73626 15.5892 4.41083C15.2638 4.08539 14.7362 4.08539 14.4107 4.41083L9.99997 8.82158L5.58921 4.41083Z" fill="#33383F"/>
</svg>
