<svg width="16" height="16" viewBox="0 0 16 16" fill="none" xmlns="http://www.w3.org/2000/svg">
<path d="M6.75728 2.56207C7.17234 1.36798 8.86105 1.36798 9.27611 2.56206L9.90647 4.3755C10.0896 4.90226 10.5812 5.25942 11.1387 5.27079L13.0582 5.3099C14.3221 5.33566 14.8439 6.94172 13.8366 7.70546L12.3067 8.86534C11.8623 9.20226 11.6745 9.78016 11.836 10.3139L12.3919 12.1516C12.758 13.3615 11.3918 14.3541 10.3541 13.6321L8.77827 12.5355C8.32052 12.217 7.71288 12.217 7.25512 12.5355L5.67925 13.6321C4.64159 14.3541 3.27539 13.3616 3.64146 12.1516L4.19741 10.3139C4.3589 9.78016 4.17113 9.20226 3.72673 8.86534L2.19684 7.70546C1.18947 6.94172 1.7113 5.33566 2.9752 5.3099L4.89468 5.27079C5.45224 5.25942 5.94383 4.90226 6.12693 4.3755L6.75728 2.56207Z" fill="#FFC554"/>
</svg>
