<svg width="20" height="20" viewBox="0 0 20 20" fill="none" xmlns="http://www.w3.org/2000/svg">
<path d="M6.66666 10.0002C6.66666 10.9206 5.92047 11.6668 4.99999 11.6668C4.07952 11.6668 3.33333 10.9206 3.33333 10.0002C3.33333 9.07969 4.07952 8.3335 4.99999 8.3335C5.92047 8.3335 6.66666 9.07969 6.66666 10.0002Z" fill="#6F767E"/>
<path d="M11.6667 10.0002C11.6667 10.9206 10.9205 11.6668 10 11.6668C9.07952 11.6668 8.33333 10.9206 8.33333 10.0002C8.33333 9.07969 9.07952 8.3335 10 8.3335C10.9205 8.3335 11.6667 9.07969 11.6667 10.0002Z" fill="#6F767E"/>
<path d="M16.6667 10.0002C16.6667 10.9206 15.9205 11.6668 15 11.6668C14.0795 11.6668 13.3333 10.9206 13.3333 10.0002C13.3333 9.07969 14.0795 8.3335 15 8.3335C15.9205 8.3335 16.6667 9.07969 16.6667 10.0002Z" fill="#6F767E"/>
</svg>
