<svg width="20" height="20" viewBox="0 0 20 20" fill="none" xmlns="http://www.w3.org/2000/svg">
<path d="M11.6844 2.49996H13.75C14.2103 2.49996 14.5834 2.87306 14.5834 3.33329C14.5834 3.79353 14.2103 4.16663 13.75 4.16663H12.3173L9.40066 15.8333H10.8334C11.2936 15.8333 11.6667 16.2064 11.6667 16.6666C11.6667 17.1269 11.2936 17.5 10.8334 17.5H8.35174C8.33993 17.5002 8.32809 17.5002 8.31621 17.5H6.25002C5.78978 17.5 5.41669 17.1269 5.41669 16.6666C5.41669 16.2064 5.78978 15.8333 6.25002 15.8333H7.6827L10.5994 4.16663H9.16669C8.70645 4.16663 8.33335 3.79353 8.33335 3.33329C8.33335 2.87306 8.70645 2.49996 9.16669 2.49996H11.6477C11.6599 2.49969 11.6721 2.49969 11.6844 2.49996Z" fill="#393F33"/>
</svg>
