<svg width="26" height="26" viewBox="0 0 26 26" fill="none" xmlns="http://www.w3.org/2000/svg">
<path fill-rule="evenodd" clip-rule="evenodd" d="M9.22794 2.1667C9.21413 2.16644 9.20034 2.16644 9.1866 2.1667H7.0982C5.75786 2.1667 4.55499 2.98954 4.06919 4.23875L2.13225 9.21945C1.66166 10.4295 2.17868 11.7566 3.24998 12.3632V20.5833C3.24998 22.3783 4.70505 23.8333 6.49998 23.8333H19.5C21.2949 23.8333 22.75 22.3783 22.75 20.5833V12.3632C23.8213 11.7566 24.3383 10.4295 23.8677 9.21945L21.9308 4.23875C21.445 2.98954 20.2421 2.1667 18.9018 2.1667H16.8134C16.7997 2.16644 16.7859 2.16644 16.7721 2.1667H9.22794ZM20.5833 12.7167C20.0974 12.6598 19.6212 12.519 19.1767 12.2967L18.4172 11.917L18.416 11.917L17.72 12.1954C16.4286 12.7119 14.988 12.7119 13.6966 12.1954L13 11.9167L12.3034 12.1954C11.012 12.7119 9.57135 12.7119 8.27995 12.1954L7.58394 11.917L7.58282 11.917L6.82329 12.2967C6.3788 12.519 5.90256 12.6598 5.41665 12.7167V20.5833C5.41665 21.1817 5.90167 21.6667 6.49998 21.6667H8.66665V18.4167C8.66665 16.6218 10.1217 15.1667 11.9166 15.1667H14.0833C15.8782 15.1667 17.3333 16.6218 17.3333 18.4167V21.6667H19.5C20.0983 21.6667 20.5833 21.1817 20.5833 20.5833V12.7167ZM19.3856 9.97878C19.3693 9.97061 19.3529 9.96265 19.3364 9.95492L18.1317 4.33337H18.9018C19.3486 4.33337 19.7495 4.60765 19.9114 5.02405L21.8484 10.0048C21.9322 10.2203 21.8079 10.4605 21.5835 10.5166C21.1008 10.6373 20.5907 10.5813 20.1456 10.3588L19.3856 9.97878ZM17.1494 10.09L15.9159 4.33337H14.0833V10.0165L14.5013 10.1837C15.2761 10.4936 16.1405 10.4936 16.9153 10.1837L17.1494 10.09ZM11.9166 4.33337H10.0841L8.85056 10.09L9.08463 10.1837C9.85947 10.4936 10.7238 10.4936 11.4987 10.1837L11.9166 10.0165V4.33337ZM6.66366 9.9549L7.86828 4.33337H7.0982C6.65142 4.33337 6.25047 4.60765 6.08853 5.02405L4.15159 10.0048C4.06776 10.2203 4.19205 10.4605 4.41644 10.5166C4.89921 10.6373 5.40923 10.5813 5.85432 10.3588L6.61436 9.97878C6.63071 9.9706 6.64715 9.96264 6.66366 9.9549ZM15.1666 18.4167V21.6667H10.8333V18.4167C10.8333 17.8184 11.3183 17.3334 11.9166 17.3334H14.0833C14.6816 17.3334 15.1666 17.8184 15.1666 18.4167Z" fill="#D1D3D4"/>
</svg>
