<svg width="26" height="26" viewBox="0 0 26 26" fill="none" xmlns="http://www.w3.org/2000/svg">
<path fill-rule="evenodd" clip-rule="evenodd" d="M13.8206 5.27825L7.32058 6.90325C6.83831 7.02382 6.49999 7.45713 6.49999 7.95424V21.6667H15.1667V10.8334V8.66672V6.32924C15.1667 5.62445 14.5043 5.10732 13.8206 5.27825ZM17.3333 10.8334V21.6667H19.5V11.9167C19.5 11.3184 19.015 10.8334 18.4167 10.8334H17.3333ZM21.6667 23.8334H22.75C23.3483 23.8334 23.8333 23.3484 23.8333 22.75C23.8333 22.1517 23.3483 21.6667 22.75 21.6667H21.6667V11.9167C21.6667 10.1218 20.2116 8.66672 18.4167 8.66672H17.3333V6.32924C17.3333 4.21488 15.3463 2.66347 13.2951 3.17627L6.79508 4.80128C5.34829 5.16297 4.33332 6.46292 4.33332 7.95424V21.6667H3.24999C2.65168 21.6667 2.16666 22.1517 2.16666 22.75C2.16666 23.3484 2.65168 23.8334 3.24999 23.8334H4.33332H6.49999H15.1667H17.3333H19.5H21.6667Z" fill="white"/>
<path fill-rule="evenodd" clip-rule="evenodd" d="M8.66666 18.4166C8.66666 17.8183 9.15168 17.3333 9.74999 17.3333H11.9167C12.515 17.3333 13 17.8183 13 18.4166C13 19.0149 12.515 19.4999 11.9167 19.4999H9.74999C9.15168 19.4999 8.66666 19.0149 8.66666 18.4166Z" fill="white"/>
<path fill-rule="evenodd" clip-rule="evenodd" d="M8.66666 14.0833C8.66666 13.485 9.15168 13 9.74999 13H11.9167C12.515 13 13 13.485 13 14.0833C13 14.6816 12.515 15.1667 11.9167 15.1667H9.74999C9.15168 15.1667 8.66666 14.6816 8.66666 14.0833Z" fill="white"/>
<path fill-rule="evenodd" clip-rule="evenodd" d="M8.66666 9.75008C8.66666 9.15177 9.15168 8.66675 9.74999 8.66675H11.9167C12.515 8.66675 13 9.15177 13 9.75008C13 10.3484 12.515 10.8334 11.9167 10.8334H9.74999C9.15168 10.8334 8.66666 10.3484 8.66666 9.75008Z" fill="white"/>
</svg>
