<svg width="22" height="22" viewBox="0 0 22 22" fill="none" xmlns="http://www.w3.org/2000/svg">
<path fill-rule="evenodd" clip-rule="evenodd" d="M6.41658 1.8335C6.92285 1.8335 7.33325 2.2439 7.33325 2.75016V3.66683H14.6666V2.75016C14.6666 2.2439 15.077 1.8335 15.5833 1.8335C16.0895 1.8335 16.4999 2.2439 16.4999 2.75016V3.66683H17.4166C18.9354 3.66683 20.1666 4.89805 20.1666 6.41683V17.4168C20.1666 18.9356 18.9354 20.1668 17.4166 20.1668H4.58325C3.06447 20.1668 1.83325 18.9356 1.83325 17.4168V6.41683C1.83325 4.89805 3.06447 3.66683 4.58325 3.66683H5.49992V2.75016C5.49992 2.2439 5.91032 1.8335 6.41658 1.8335ZM14.6666 5.50016V6.41683C14.6666 6.92309 15.077 7.3335 15.5833 7.3335C16.0895 7.3335 16.4999 6.92309 16.4999 6.41683V5.50016H17.4166C17.9228 5.50016 18.3333 5.91057 18.3333 6.41683V9.16683H3.66659V6.41683C3.66659 5.91057 4.07699 5.50016 4.58325 5.50016H5.49992V6.41683C5.49992 6.92309 5.91032 7.3335 6.41658 7.3335C6.92285 7.3335 7.33325 6.92309 7.33325 6.41683V5.50016H14.6666ZM3.66659 11.0002V17.4168C3.66659 17.9231 4.07699 18.3335 4.58325 18.3335H17.4166C17.9228 18.3335 18.3333 17.9231 18.3333 17.4168V11.0002H3.66659Z" fill="#6F767E"/>
</svg>
