<svg width="36" height="36" viewBox="0 0 36 36" fill="none" xmlns="http://www.w3.org/2000/svg">
<rect width="36" height="36" rx="12" fill="#0275BB"/>
<rect width="36" height="36" rx="12" stroke="#0275BB"/>
<g clip-path="url(#clip0_0_98)">
<path d="M23.7501 16.75H19.5001C19.362 16.75 19.2501 16.6381 19.2501 16.5V12.25C19.2501 11.5597 18.6904 11 18.0001 11C17.3098 11 16.7501 11.5597 16.7501 12.25V16.5C16.7501 16.6381 16.6381 16.75 16.5001 16.75H12.2501C11.5598 16.75 11.0001 17.3097 11.0001 18C11.0001 18.6903 11.5598 19.25 12.2501 19.25H16.5001C16.6381 19.25 16.7501 19.3619 16.7501 19.5V23.75C16.7501 24.4403 17.3098 25 18.0001 25C18.6904 25 19.2501 24.4403 19.2501 23.75V19.5C19.2501 19.3619 19.362 19.25 19.5001 19.25H23.7501C24.4404 19.25 25.0001 18.6903 25.0001 18C25.0001 17.3097 24.4404 16.75 23.7501 16.75Z" fill="white"/>
</g>
<defs>
<clipPath id="clip0_0_98">
<rect width="14" height="14" fill="white" transform="translate(11.0001 11)"/>
</clipPath>
</defs>
</svg>
