<svg width="36" height="36" viewBox="0 0 36 36" fill="none" xmlns="http://www.w3.org/2000/svg">
<rect width="36" height="36" rx="12" fill="#6759FF"/>
<rect width="36" height="36" rx="12" stroke="#3B71FE"/>
<g clip-path="url(#clip0_0_134)">
<path d="M23.75 16.75H19.5C19.3619 16.75 19.25 16.6381 19.25 16.5V12.25C19.25 11.5597 18.6903 11 18 11C17.3097 11 16.75 11.5597 16.75 12.25V16.5C16.75 16.6381 16.6381 16.75 16.5 16.75H12.25C11.5597 16.75 11 17.3097 11 18C11 18.6903 11.5597 19.25 12.25 19.25H16.5C16.6381 19.25 16.75 19.3619 16.75 19.5V23.75C16.75 24.4403 17.3097 25 18 25C18.6903 25 19.25 24.4403 19.25 23.75V19.5C19.25 19.3619 19.3619 19.25 19.5 19.25H23.75C24.4403 19.25 25 18.6903 25 18C25 17.3097 24.4403 16.75 23.75 16.75Z" fill="white"/>
</g>
<defs>
<clipPath id="clip0_0_134">
<rect width="14" height="14" fill="white" transform="translate(11 11)"/>
</clipPath>
</defs>
</svg>
