<svg width="51" height="51" viewBox="0 0 51 51" fill="none" xmlns="http://www.w3.org/2000/svg">
<circle cx="25.5241" cy="25.4759" r="25.4759" fill="#D5F4ED"/>
<rect y="0.00199015" width="50.9478" height="50.9478" rx="25" fill="#FFBC99"/>
<path opacity="0.4" fill-rule="evenodd" clip-rule="evenodd" d="M15.4312 11.8039C15.1621 11.9403 14.9997 12.209 14.9997 12.5177C14.9997 12.8265 15.1621 13.0952 15.4312 13.2316C15.6036 13.319 15.8265 13.3254 18.2641 13.3123C20.8409 13.2985 20.9136 13.2952 21.0583 13.1872C21.325 12.9879 21.4224 12.8087 21.4224 12.5177C21.4224 12.2267 21.325 12.0476 21.0583 11.8483C20.9136 11.7403 20.8409 11.737 18.2641 11.7232C15.8265 11.7101 15.6036 11.7165 15.4312 11.8039ZM36.4664 11.8017C36.3634 11.8551 36.2242 11.9811 36.1571 12.0817C36.0508 12.2409 36.0349 12.3331 36.0349 12.7948V13.325L35.5373 13.3252C34.9603 13.3252 34.7346 13.4094 34.5431 13.6963C34.2872 14.0796 34.4371 14.6367 34.8525 14.8454C34.9903 14.9147 35.1709 14.9395 35.5373 14.9396L36.0349 14.9397V15.4699C36.0349 15.9316 36.0508 16.0238 36.1571 16.183C36.4845 16.6734 37.1341 16.662 37.5092 16.1593C37.597 16.0416 37.6225 15.9094 37.6396 15.4813L37.661 14.9493L38.1891 14.931C38.6201 14.9161 38.7446 14.8924 38.8657 14.8018C39.1323 14.6024 39.2298 14.4233 39.2298 14.1324C39.2298 13.8414 39.1323 13.6623 38.8657 13.4629C38.7446 13.3724 38.6201 13.3486 38.1891 13.3337L37.661 13.3154L37.6396 12.7835C37.6168 12.2151 37.5618 12.08 37.2617 11.8559C37.0627 11.7072 36.6966 11.6823 36.4664 11.8017ZM12.1494 15.0331C11.8804 15.1695 11.718 15.4382 11.718 15.747C11.718 16.0557 11.8804 16.3244 12.1494 16.4608C12.322 16.5482 12.5461 16.5546 15.0093 16.5415C17.6132 16.5277 17.6856 16.5245 17.8304 16.4164C18.097 16.2171 18.1945 16.038 18.1945 15.747C18.1945 15.456 18.097 15.2768 17.8304 15.0775C17.6856 14.9694 17.6132 14.9662 15.0093 14.9524C12.5461 14.9393 12.322 14.9457 12.1494 15.0331ZM31.5707 34.5139C31.4678 34.5673 31.3285 34.6933 31.2614 34.7939C31.1551 34.9531 31.1393 35.0453 31.1393 35.507V36.0372L30.6416 36.0374C30.0646 36.0374 29.839 36.1216 29.6474 36.4085C29.3915 36.7918 29.5415 37.3488 29.9568 37.5576C30.0946 37.6269 30.2753 37.6517 30.6416 37.6517L31.1393 37.6519V38.1821C31.1393 38.6438 31.1551 38.736 31.2614 38.8952C31.5888 39.3856 32.2384 39.3742 32.6136 38.8715C32.7014 38.7538 32.7268 38.6216 32.744 38.1935L32.7653 37.6615L33.2935 37.6432C33.7245 37.6283 33.8489 37.6045 33.97 37.514C34.2367 37.3146 34.3341 37.1355 34.3341 36.8446C34.3341 36.5536 34.2367 36.3745 33.97 36.1751C33.8489 36.0846 33.7245 36.0608 33.2935 36.0459L32.7653 36.0276L32.744 35.4957C32.7212 34.9273 32.6661 34.7922 32.366 34.5681C32.167 34.4194 31.8009 34.3945 31.5707 34.5139Z" fill="#2C2B46"/>
<path fill-rule="evenodd" clip-rule="evenodd" d="M25.8402 12.9863C25.1423 13.0807 24.1732 13.4577 23.5404 13.8811C22.8785 14.3238 20.0447 17.1895 19.7614 17.7025C19.4295 18.3037 19.2955 18.7995 19.2648 19.5413L19.2379 20.1872L21.49 17.9506C23.8756 15.5814 23.9693 15.5035 24.6798 15.2946C25.0593 15.1832 25.8141 15.1832 26.1935 15.2946C26.9576 15.5192 27.6154 16.0702 27.9565 16.7713L28.1541 17.1775L28.5304 17.0472C29.065 16.862 29.7773 16.8631 30.311 17.05C31.9311 17.6174 32.6607 19.3038 31.9826 20.9138C31.9572 20.974 32.0543 21.0445 32.3644 21.1912C33.7259 21.8355 34.308 23.4549 33.6985 24.9025C33.6699 24.9706 33.7518 25.032 34.0767 25.1864C34.5801 25.4255 35.1246 25.9508 35.3487 26.4133C35.7714 27.286 35.7624 28.2205 35.323 29.0632C35.1864 29.3253 34.8172 29.7285 33.4687 31.0884C32.5426 32.0222 31.7849 32.8064 31.7849 32.8311C31.7849 32.8557 32.1057 32.8642 32.4978 32.8499C33.0849 32.8284 33.2865 32.7982 33.641 32.6783C34.4633 32.4001 34.6956 32.2207 36.3217 30.6071C37.9294 29.0115 38.2185 28.674 38.5851 27.9642C39.3643 26.4555 39.4178 24.5597 38.7243 23.0294C38.3003 22.0942 38.2963 22.0897 34.238 18.0172C30.0732 13.8377 30.0131 13.7843 29.0117 13.3751C28.2596 13.0678 27.5957 12.9466 26.7194 12.9564C26.3246 12.9608 25.929 12.9743 25.8402 12.9863ZM24.9193 16.9198C24.8271 16.9704 22.8903 18.859 20.6154 21.1167C16.6678 25.0345 16.4775 25.2149 16.4421 25.0725C16.4216 24.9905 16.3434 23.8093 16.2683 22.4476L16.1317 19.9719L15.9558 19.6241C15.4486 18.6215 14.102 18.4296 13.3577 19.2538C13.0311 19.6154 12.9671 19.8282 12.8737 20.8645C12.7173 22.5983 12.6133 23.4572 12.174 26.6456C11.7574 29.6698 11.7486 29.7646 11.7467 31.2473C11.7452 32.3902 11.762 32.7006 11.8465 33.1041C12.1515 34.5586 12.8051 35.7213 13.9742 36.8888C15.1101 38.0231 16.4936 38.765 18.1201 39.1119C18.8599 39.2696 20.355 39.2856 21.118 39.1439C22.1961 38.9436 23.2865 38.5017 24.2222 37.8856C24.7132 37.5624 25.191 37.1026 29.2963 33.0036C31.934 30.37 33.8667 28.3991 33.92 28.2886C33.9704 28.1842 34.0211 27.9535 34.0327 27.7758C34.0753 27.126 33.5987 26.5768 32.9453 26.5226C32.3989 26.4773 32.3952 26.4801 30.4669 28.3968C28.559 30.2932 28.565 30.2886 28.1052 30.2023C27.5943 30.1065 27.3348 29.5325 27.585 29.0519C27.6422 28.9421 28.6856 27.8593 29.9039 26.6456C31.3758 25.1791 32.1526 24.3668 32.2196 24.2237C32.4257 23.784 32.3125 23.1652 31.9666 22.8407C31.643 22.5371 31.0835 22.4384 30.6669 22.6114C30.5308 22.6679 29.7276 23.432 28.1535 25.0023C26.1309 27.02 25.8148 27.3147 25.6384 27.3471C25.003 27.4638 24.5384 26.9992 24.6546 26.3631C24.6871 26.1856 25.0384 25.8131 27.5602 23.2818C29.138 21.6982 30.4642 20.3298 30.5074 20.241C30.6318 19.9853 30.6578 19.7478 30.5945 19.4453C30.5462 19.2145 30.4855 19.1155 30.2531 18.8881C29.8382 18.482 29.3751 18.4043 28.8798 18.6574C28.7762 18.7104 27.4447 20.0042 25.9209 21.5327C24.397 23.0611 23.0604 24.3585 22.9507 24.4157C22.4703 24.6661 21.8965 24.4064 21.8007 23.8953C21.7125 23.4252 21.6616 23.4883 24.1474 20.9945C25.717 19.4198 26.4808 18.6163 26.5373 18.4801C26.7859 17.8809 26.4947 17.1517 25.9091 16.907C25.6434 16.796 25.1332 16.8026 24.9193 16.9198Z" fill="#2C2B46"/>
</svg>
