<svg width="30" height="30" viewBox="0 0 30 30" fill="none" xmlns="http://www.w3.org/2000/svg">
<rect width="30" height="30" fill="white" fill-opacity="0.01"/>
<path fill-rule="evenodd" clip-rule="evenodd" d="M6 6H24C25.6547 6 27 7.36667 27 9.04667V9.656H3V9.04667C3 7.36667 4.34533 6 6 6ZM6 23.3333C4.34533 23.3333 3 21.9667 3 20.2867V12.3653H27V20.2867C27 21.9667 25.6547 23.3333 24 23.3333H6ZM23.3333 18.256C23.3333 17.508 22.736 16.9013 22 16.9013C21.264 16.9013 20.6667 17.5067 20.6667 18.256C20.6667 19.004 21.264 19.6107 22 19.6107C22.736 19.6107 23.3333 19.004 23.3333 18.256ZM18.6667 16.9013C19.4027 16.9013 20 17.508 20 18.256C20 19.004 19.4027 19.6107 18.6667 19.6107C17.9307 19.6107 17.3333 19.004 17.3333 18.256C17.3333 17.5067 17.9307 16.9013 18.6667 16.9013Z" fill="#FA6400"/>
<mask id="mask0_422_1594" style="mask-type:luminance" maskUnits="userSpaceOnUse" x="3" y="6" width="24" height="18">
<path fill-rule="evenodd" clip-rule="evenodd" d="M6 6H24C25.6547 6 27 7.36667 27 9.04667V9.656H3V9.04667C3 7.36667 4.34533 6 6 6ZM6 23.3333C4.34533 23.3333 3 21.9667 3 20.2867V12.3653H27V20.2867C27 21.9667 25.6547 23.3333 24 23.3333H6ZM23.3333 18.256C23.3333 17.508 22.736 16.9013 22 16.9013C21.264 16.9013 20.6667 17.5067 20.6667 18.256C20.6667 19.004 21.264 19.6107 22 19.6107C22.736 19.6107 23.3333 19.004 23.3333 18.256ZM18.6667 16.9013C19.4027 16.9013 20 17.508 20 18.256C20 19.004 19.4027 19.6107 18.6667 19.6107C17.9307 19.6107 17.3333 19.004 17.3333 18.256C17.3333 17.5067 17.9307 16.9013 18.6667 16.9013Z" fill="white"/>
</mask>
<g mask="url(#mask0_422_1594)">
<rect width="30" height="30" fill="black"/>
</g>
</svg>
