<svg width="24" height="24" viewBox="0 0 24 24" fill="none" xmlns="http://www.w3.org/2000/svg">
<path fill-rule="evenodd" clip-rule="evenodd" d="M10.0541 2.34459C11.1754 1.38904 12.8245 1.38904 13.9458 2.34459L15.2173 3.42812C15.3774 3.56461 15.5766 3.6471 15.7863 3.66384L17.4516 3.79673C18.9201 3.91392 20.0863 5.08005 20.2034 6.54858L20.3363 8.21382C20.3531 8.42358 20.4356 8.62272 20.572 8.78289L21.6556 10.0544C22.6111 11.1756 22.6111 12.8248 21.6556 13.9461L20.572 15.2175C20.4356 15.3777 20.3531 15.5768 20.3363 15.7866L20.2034 17.4518C20.0863 18.9204 18.9201 20.0865 17.4516 20.2037L15.7863 20.3366C15.5766 20.3533 15.3774 20.4358 15.2173 20.5723L13.9458 21.6558C12.8245 22.6114 11.1754 22.6114 10.0541 21.6558L8.78264 20.5723C8.62248 20.4358 8.42334 20.3533 8.21357 20.3366L6.54833 20.2037C5.0798 20.0865 3.91367 18.9204 3.79648 17.4518L3.66359 15.7866C3.64685 15.5768 3.56437 15.3777 3.42788 15.2175L2.34434 13.9461C1.3888 12.8248 1.3888 11.1756 2.34434 10.0544L3.42788 8.78289C3.56437 8.62272 3.64685 8.42358 3.66359 8.21382L3.79648 6.54858C3.91367 5.08005 5.0798 3.91392 6.54833 3.79673L8.21357 3.66384C8.42334 3.6471 8.62248 3.56461 8.78264 3.42812L10.0541 2.34459ZM12.6486 3.86682C12.2748 3.5483 11.7251 3.5483 11.3513 3.86682L10.0799 4.95035C9.59939 5.35982 9.00197 5.60728 8.37267 5.6575L6.70743 5.79039C6.21792 5.82945 5.82921 6.21816 5.79014 6.70767L5.65726 8.37291C5.60704 9.00221 5.35958 9.59963 4.95011 10.0801L3.86657 11.3516C3.54806 11.7253 3.54806 12.2751 3.86657 12.6488L4.95011 13.9203C5.35958 14.4008 5.60704 14.9982 5.65726 15.6275L5.79014 17.2927C5.82921 17.7822 6.21792 18.171 6.70743 18.21L8.37267 18.3429C9.00197 18.3931 9.59939 18.6406 10.0799 19.0501L11.3513 20.1336C11.7251 20.4521 12.2748 20.4521 12.6486 20.1336L13.92 19.0501C14.4005 18.6406 14.998 18.3931 15.6273 18.3429L17.2925 18.21C17.782 18.171 18.1707 17.7822 18.2098 17.2927L18.3427 15.6275C18.3929 14.9982 18.6403 14.4008 19.0498 13.9203L20.1334 12.6488C20.4519 12.2751 20.4519 11.7253 20.1334 11.3516L19.0498 10.0801C18.6403 9.59963 18.3929 9.00221 18.3427 8.37291L18.2098 6.70767C18.1707 6.21816 17.782 5.82945 17.2925 5.79039L15.6273 5.6575C14.998 5.60728 14.4005 5.35982 13.92 4.95035L12.6486 3.86682Z" fill="#D1D3D4"/>
<path d="M11 9.5C11 10.3284 10.3284 11 9.5 11C8.67157 11 8 10.3284 8 9.5C8 8.67157 8.67157 8 9.5 8C10.3284 8 11 8.67157 11 9.5Z" fill="#D1D3D4"/>
<path d="M16 14.5C16 15.3284 15.3284 16 14.5 16C13.6716 16 13 15.3284 13 14.5C13 13.6716 13.6716 13 14.5 13C15.3284 13 16 13.6716 16 14.5Z" fill="#D1D3D4"/>
<path fill-rule="evenodd" clip-rule="evenodd" d="M15.1402 8.2318C15.5645 8.58537 15.6218 9.21593 15.2682 9.64021L10.2682 15.6402C9.91468 16.0645 9.28412 16.1218 8.85984 15.7682C8.43556 15.4147 8.37824 14.7841 8.7318 14.3598L13.7318 8.35984C14.0854 7.93556 14.7159 7.87824 15.1402 8.2318Z" fill="#D1D3D4"/>
</svg>
