<svg width="280" height="217" viewBox="0 0 280 217" fill="none" xmlns="http://www.w3.org/2000/svg">
<path d="M160.061 95.0731L158.15 92.3177H154.796C154.418 92.3177 154.196 91.8733 154.418 91.5844L156.44 88.9179L155.396 85.7402C155.285 85.3847 155.618 85.0291 155.995 85.1625L159.15 86.2735L161.86 84.2958C162.171 84.0736 162.593 84.2958 162.593 84.6736L162.505 88.029L165.215 89.9845C165.526 90.2067 165.437 90.6956 165.082 90.8067L161.883 91.7622L160.861 94.9398C160.75 95.3176 160.283 95.4065 160.061 95.0731Z" fill="#F47458"/>
<path d="M248.366 34.4315L250.121 30.3428L247.766 26.5651C247.5 26.1429 247.833 25.5874 248.344 25.6318L252.765 26.054L255.608 22.632C255.941 22.232 256.563 22.3875 256.674 22.8986L257.652 27.2318L261.784 28.8984C262.25 29.0984 262.295 29.7428 261.873 29.9872L258.052 32.2538L257.741 36.698C257.696 37.2091 257.097 37.4536 256.719 37.1202L253.387 34.187L249.077 35.2759C248.566 35.387 248.166 34.8981 248.366 34.4315Z" fill="#F7CC7F"/>
<path d="M17.9499 146.715L15.684 142.382L10.841 141.782C10.2857 141.716 10.0635 141.049 10.4412 140.649L13.8623 137.16L12.9293 132.361C12.8182 131.805 13.3958 131.383 13.8845 131.627L18.2609 133.805L22.5262 131.427C23.015 131.161 23.5926 131.561 23.5259 132.116L22.815 136.96L26.3917 140.294C26.7916 140.671 26.5916 141.36 26.0362 141.449L21.2155 142.271L19.1495 146.693C18.9274 147.204 18.2165 147.227 17.9499 146.715Z" fill="#9BC1F9"/>
<path d="M276.602 42.6534L276.668 45.0088L272.87 45.5199L272.514 48.9864L269.737 49.8531L270.159 51.253L273.891 50.1197L274.202 46.831L278.157 46.2977L278.068 42.7423L276.602 42.6534Z" fill="#0275BB"/>
<path d="M66.3123 18.4098C66.5123 16.8543 68.0007 15.721 69.5558 15.9432C71.1775 16.1655 72.1105 17.4765 71.955 19.1209C71.7773 20.7653 70.5332 21.8763 68.8227 21.6763C67.0899 21.4763 66.0902 20.0764 66.3123 18.4098ZM67.8452 14.1655L68.6005 1.6994C68.6671 0.677218 69.578 -0.100527 70.5999 0.0105792L71.8439 0.143907C72.8658 0.255013 73.5989 1.21053 73.4212 2.23271L71.4218 14.5655L67.8452 14.1655Z" fill="#F48C7F"/>
<path d="M58.404 81.1849C58.4929 84.2736 59.2926 90.9178 66.2904 92.0066C70.6446 92.6955 76.2206 88.7846 75.8652 85.8958C75.5097 83.0292 74.71 75.6962 70.1559 74.0296C66.3793 72.6519 58.2263 74.2741 58.404 81.1849Z" fill="#184655"/>
<path d="M116.919 181.181C117.918 185.336 118.696 191.358 118.985 191.691C119.118 191.847 119.407 192.891 119.562 193.069C124.094 194.713 128.071 193.025 131.225 191.136C128.759 190.691 125.427 190.247 124.961 189.914C123.25 188.692 123.65 184.381 123.339 180.492C122.095 180.714 119.14 179.936 116.919 181.181Z" fill="#F7A491"/>
<path d="M118.896 191.447C118.918 193.091 119.984 196.602 120.317 196.602C120.717 196.602 134.313 195.425 135.601 193.336C136.379 192.069 134.269 191.758 131.225 191.158C128.07 193.025 119.273 192.491 118.896 191.447Z" fill="#0275BB"/>
<path d="M52.2948 190.469C49.1402 192.936 45.9635 194.913 45.5636 195.091C45.3636 195.18 44.2751 195.18 44.0752 195.269C41.276 199.202 41.8536 203.491 42.8089 207.024C43.8974 204.757 45.1637 201.602 45.6747 201.313C46.4522 200.869 49.2957 199.18 54.383 197.113C52.6502 195.247 52.8724 192.936 52.2948 190.469Z" fill="#F7A491"/>
<path d="M59.4482 103.429L49.7179 121.139C49.7179 121.139 43.2089 129.316 39.8544 133.538C40.5653 134.716 41.2762 135.938 41.8982 137.183C45.2305 134.338 52.3171 128.339 54.8497 125.005C58.5818 120.094 65.3575 108.428 65.3575 108.428L59.4482 103.429Z" fill="#F7A491"/>
<path d="M85.3285 134.249L74.9318 149.604C74.9318 149.604 74.332 148.582 78.0641 149.937C81.7963 151.293 105.811 155.782 107.233 157.493C108.232 158.693 115.697 182.269 117.118 185.292C119.273 186.158 122.428 185.203 124.649 184.869C124.783 173.514 118.785 152.826 117.163 150.404C113.586 144.982 96.5027 139.138 88.8163 135.849C87.5722 135.316 86.5947 134.849 85.9949 134.56C85.5728 134.338 85.3285 134.249 85.3285 134.249Z" fill="#3C8F7C"/>
<path d="M45.386 195.136C43.7865 194.713 40.5431 194.736 40.4542 195.047C40.3654 195.424 37.8551 208.868 39.5212 210.646C40.5209 211.735 41.4095 209.802 42.8091 207.024C41.8316 203.491 44.2975 195.224 45.386 195.136Z" fill="#0275BB"/>
<path d="M82.5961 145.049C82.6849 143.893 85.1508 137.16 86.0172 134.538C86.0394 134.449 85.3952 132.938 84.7065 130.761L83.7068 130.916L68.9115 131.583C68.9115 131.583 62.9578 141.649 63.6465 146.271C64.624 152.737 73.9543 175.67 72.5326 176.759C69.9778 178.714 57.4262 185.981 50.9838 190.314C51.4059 192.802 52.5611 196.291 54.1384 198.291C59.3812 196.469 82.0629 187.314 84.3955 180.314C86.4393 174.114 82.4406 147.004 82.5961 145.049Z" fill="#50BFA5"/>
<path d="M82.352 88.4737C82.352 88.4737 78.2866 94.8734 75.8651 95.1179L84.3513 102.984C84.3513 102.984 90.1495 94.2957 90.7493 92.8069C90.7715 92.8069 85.5065 88.1182 82.352 88.4737Z" fill="#F7CC7F"/>
<path d="M85.3286 127.183C84.951 130.716 86.0395 134.56 86.0395 134.56C82.6184 135.294 70.5111 136.849 67.5565 133.227C67.4454 133.094 71.7552 125.516 71.1553 122.405C70.289 117.828 66.4902 110.095 66.1791 109.672C65.646 108.984 63.7133 112.583 63.7133 112.583C61.4473 112.606 56.2267 107.317 56.2267 107.317C56.2267 107.317 61.6028 97.9396 63.0912 97.0508C64.5797 96.1619 76.798 94.8287 76.8202 94.8287C77.731 94.762 80.1747 96.8953 80.8634 97.5841C88.5721 105.295 86.5061 116.361 85.3286 127.183Z" fill="#FAE0B2"/>
<path d="M69.9111 90.9178C69.9111 90.9178 71.244 95.3176 71.244 97.1175C71.244 98.9175 71.9771 101.34 75.7315 100.984C79.4859 100.606 76.3979 96.8287 75.8648 95.1399C75.3316 93.4288 74.6874 88.0735 74.6874 88.0735L69.9111 90.9178Z" fill="#F7A491"/>
<path d="M75.065 90.7402C74.8651 89.2736 74.7096 88.0515 74.7096 88.0515L69.9111 90.918C69.9111 90.918 70.1777 91.8291 70.4887 92.9624C72.7324 93.1846 74.2431 92.2068 75.065 90.7402Z" fill="#F47458"/>
<path d="M66.0015 77.607C66.0015 77.607 64.0244 78.9847 63.5134 81.5846C63.0025 84.1845 64.5575 90.6065 70.1335 91.6064C75.7095 92.6064 77.5312 87.2288 75.9983 83.3179C74.4655 79.4069 71.5109 74.5405 66.0015 77.607Z" fill="#F7A491"/>
<path d="M75.3652 83.6748C76.0032 83.6715 76.5158 82.7834 76.5102 81.6912C76.5045 80.5989 75.9827 79.7161 75.3447 79.7194C74.7068 79.7227 74.1941 80.6109 74.1998 81.7031C74.2054 82.7954 74.7272 83.6781 75.3652 83.6748Z" fill="#F7A491"/>
<path d="M66.1959 89.6159C66.7895 89.1206 66.6781 88.0086 65.9471 87.1322C65.2162 86.2558 64.1425 85.9468 63.5489 86.4421C62.9554 86.9374 63.0668 88.0494 63.7977 88.9258C64.5286 89.8022 65.6023 90.1112 66.1959 89.6159Z" fill="#F7A491"/>
<path d="M60.2922 75.1631C60.5144 72.1632 62.6248 61.0304 55.8048 59.9637C48.9847 58.8971 47.5407 66.3635 43.7419 56.3194C40.2319 47.031 29.8352 50.6308 29.3909 57.6749C28.4134 57.5861 27.3915 57.7416 26.4363 58.1416C23.104 59.5415 21.5934 63.5414 23.0818 67.0745C23.3261 67.6301 23.1929 68.1856 23.5261 68.6523C22.7263 71.7188 23.2817 75.2298 25.6587 78.8074C32.1456 88.5625 38.6324 78.2963 43.0088 78.8518C47.3852 79.4074 44.5417 82.8294 48.3182 85.496C52.117 88.1626 55.1605 87.4737 61.3363 80.1851L62.8692 78.1852C62.8914 78.163 60.0701 78.163 60.2922 75.1631Z" fill="#184655"/>
<path d="M251.898 160.048C255.319 158.693 258.385 156.826 258.74 156.648C259.029 156.493 260.184 155.648 260.34 155.537C263.361 157.337 264.45 158.848 266.827 161.248C265.072 161.337 264.316 159.893 263.65 160.048C262.828 160.226 260.273 161.937 256.275 165.048C255.586 162.781 253.586 161.648 251.898 160.048Z" fill="#F8A492"/>
<path d="M203.536 195.069C204.313 198.669 205.735 201.869 205.913 202.224C206.002 202.402 206.535 202.535 206.624 202.713C204.358 205.38 203.38 209.824 200.626 211.779C200.826 210.024 202.003 206.757 201.959 206.068C201.914 205.246 200.648 202.424 198.271 197.98C200.559 197.669 201.67 196.469 203.536 195.069Z" fill="#F8A492"/>
<path d="M204.98 202.98C205.291 202.202 206.313 201.669 207.046 202.135C207.779 202.602 208.756 203.113 209.467 203.602C210.289 204.158 210.334 204.802 210.311 204.958C210.245 205.38 200.603 216.668 199.359 216.824C198.115 216.979 200.403 207.446 201.759 206.446C202.98 205.58 203.58 206.469 204.98 202.98Z" fill="#3C8F7C"/>
<path d="M260.051 156.648C259.34 156.204 258.985 155.093 259.585 154.471C260.162 153.826 260.851 152.959 261.473 152.337C262.184 151.626 262.806 151.693 262.961 151.737C263.361 151.871 272.736 163.403 272.692 164.648C272.625 165.892 263.65 161.937 262.917 160.426C262.251 159.07 263.25 158.648 260.051 156.648Z" fill="#3C8F7C"/>
<path d="M207.224 152.96C207.224 152.96 226.262 178.625 229.572 178.87C232.683 179.092 256.697 165.693 256.697 165.693L253.565 158.782L234.326 165.693L220.931 140.338L207.224 152.96Z" fill="#B75742"/>
<path d="M218.198 131.272C218.198 131.272 221.686 132.094 223.685 137.427C225.684 142.738 222.352 147.16 213.999 154.848C205.868 162.337 197.849 169.381 197.849 169.381L204.447 196.536L198.959 201.18C198.959 201.18 186.252 173.581 185.897 167.026C185.764 164.515 205.269 135.427 205.269 135.427L218.198 131.272Z" fill="#F47458"/>
<path d="M203.469 98.0286L192.85 103.984L184.431 108.028C184.431 108.028 182.387 101.051 183.076 97.6286C183.164 97.1398 183.653 96.562 183.831 96.2954C185.208 94.2066 182.254 90.9845 182.254 90.9845C182.254 90.9845 180.476 90.4734 179.255 93.4288C178.033 96.3842 180.276 97.6286 180.276 97.6286C180.276 97.6286 177.722 106.562 178.788 113.05C179.343 116.45 187.874 113.961 194.65 111.028C200.359 108.562 204.558 105.806 204.558 105.806L203.469 98.0286Z" fill="#F7A491"/>
<path d="M205.846 97.0289C205.624 96.8289 205.247 96.6956 204.647 96.9178C203.336 97.4067 190.584 104.406 190.584 104.406C190.584 104.406 191.717 110.539 194.717 112.406L201.137 110.451L206.046 98.0289C206.202 97.6733 206.135 97.2733 205.846 97.0289Z" fill="#3C8F7C"/>
<path d="M235.193 70.8297C230.35 67.8743 224.329 68.4298 220.73 72.4297C217.776 71.3186 214.377 71.4075 211.644 72.6963C206.246 75.2295 201.448 81.8293 205.535 86.6068C204.669 92.9621 208.468 96.6731 213.222 97.0953C215.799 102.273 224.929 102.806 230.194 98.5397C234.526 100.228 239.702 99.4952 242.901 96.362C243.679 95.6065 244.79 94.4065 245.056 94.2954C244.745 94.451 257.141 92.8066 256.586 81.8737C255.986 70.6742 242.635 66.4077 235.193 70.8297Z" fill="#FE875E"/>
<path d="M213.222 96.1622L221.086 96.6066L219.775 107.606C219.775 107.606 215.977 118.206 217.532 123.294C219.087 128.383 220.575 132.094 220.575 132.094C220.575 132.094 216.088 137.249 203.536 136.183C203.536 136.183 203.692 127.05 203.536 124.272C203.381 121.494 200.159 109.984 200.604 107.384C201.048 104.784 203.803 97.5844 204.536 96.9844C205.247 96.3844 208.112 96.0733 208.112 96.0733L213.222 96.1622Z" fill="#50BFA5"/>
<path d="M213.577 90.1182C213.577 90.1182 213.444 91.0071 213.311 92.1403C213.155 93.5625 213 95.3846 213.133 96.3624C213.378 98.1179 211.734 102.74 208.001 102.918C204.269 103.095 207.913 97.8068 208.201 96.0735C208.49 94.3402 208.49 87.985 208.49 87.985L213.577 90.1182Z" fill="#F7A491"/>
<path d="M208.512 90.6737C208.512 89.2071 208.49 87.985 208.49 87.985L213.577 90.1182C213.577 90.1182 213.444 91.0293 213.31 92.207C211.133 92.7403 209.534 92.007 208.512 90.6737Z" fill="#F47458"/>
<path d="M213.955 77.0517C213.955 77.0517 216.11 77.8072 217.221 80.0738C218.331 82.3182 218.554 88.5846 213.688 90.9178C208.845 93.2511 205.824 88.7846 206.246 84.807C206.691 80.8293 208.157 75.6518 213.955 77.0517Z" fill="#F7A491"/>
<path d="M205.958 81.3503C205.378 81.5071 205.125 82.441 205.394 83.4362C205.662 84.4314 206.351 85.1111 206.931 84.9543C207.511 84.7976 207.764 83.8637 207.495 82.8685C207.227 81.8732 206.538 81.1935 205.958 81.3503Z" fill="#F7A491"/>
<path d="M218.683 84.3257C218.013 84.0213 217.104 84.5806 216.652 85.5751C216.201 86.5696 216.378 87.6226 217.048 87.9271C217.719 88.2316 218.628 87.6722 219.079 86.6777C219.531 85.6832 219.354 84.6302 218.683 84.3257Z" fill="#F7A491"/>
<path d="M111.676 133.694C110.943 131.538 80.7969 43.6974 79.464 39.8532C77.4424 33.9867 71 30.8313 65.0463 32.809L20.105 47.7862C14.1513 49.7639 10.9745 56.1414 12.9961 62.0078L45.2082 155.848C47.2297 161.715 53.6721 164.87 59.6258 162.892L104.589 147.915C110.499 145.938 113.698 139.582 111.676 133.694ZM100.746 136.071L55.3161 151.204C51.8949 152.337 48.1628 150.515 47.0076 147.138L17.2392 60.3412C16.084 56.9636 17.9057 53.2748 21.349 52.1415L66.7791 37.0088C70.2003 35.8756 73.9324 37.6977 75.0876 41.0753C82.3075 62.1633 104.19 125.983 104.856 127.872C106.011 131.249 104.167 134.938 100.746 136.071Z" fill="#355389"/>
<path d="M89.1055 146.249C89.7942 148.271 86.6174 151.16 81.9966 152.693C77.3759 154.226 73.0661 153.849 72.3774 151.827C71.6888 149.804 74.8655 146.916 79.4863 145.382C84.1071 143.827 88.4168 144.227 89.1055 146.249Z" fill="#184655"/>
<path d="M87.8836 146.404C88.5279 148.293 85.9065 150.893 81.9966 152.182C78.0867 153.471 74.399 153.004 73.7547 151.093C73.1105 149.204 75.7319 146.604 79.6418 145.316C83.5294 144.027 87.2172 144.516 87.8836 146.404Z" fill="#355389"/>
<path d="M253.409 45.8532L202.892 34.4315C196.205 32.9205 189.629 36.8758 188.185 43.2534L165.126 145.271C163.682 151.649 167.925 158.071 174.612 159.56L225.129 170.981C231.816 172.492 238.392 168.537 239.836 162.159L262.895 60.1415C264.339 53.764 260.096 47.3643 253.409 45.8532ZM236.77 153.16C235.948 156.849 232.149 159.115 228.284 158.249L177.233 146.716C173.39 145.849 170.924 142.16 171.768 138.472L193.095 44.12C193.917 40.4313 197.716 38.1647 201.581 39.0313L252.632 50.5642C256.475 51.4308 258.941 55.1195 258.096 58.8083L236.77 153.16Z" fill="#86B1F2"/>
<path d="M201.357 162.794C206.539 163.966 211.141 163.14 211.636 160.949C212.131 158.759 208.331 156.033 203.15 154.861C197.968 153.69 193.366 154.516 192.871 156.706C192.375 158.897 196.175 161.623 201.357 162.794Z" fill="#0275BB"/>
<path d="M201.608 162.353C205.988 163.343 209.916 162.477 210.382 160.418C210.847 158.359 207.674 155.887 203.294 154.897C198.913 153.906 194.986 154.773 194.52 156.832C194.055 158.891 197.228 161.363 201.608 162.353Z" fill="#86B1F2"/>
<path d="M220.775 99.4511C220.775 99.4511 237.369 95.4068 241.079 94.7402C244.789 94.0513 257.63 89.4293 258.118 89.2293C258.607 89.0293 260.451 82.4296 261.162 82.8963C261.895 83.3629 260.051 86.2294 260.962 86.6072C261.873 86.985 269.604 83.5184 269.648 84.1406C269.759 85.3184 265.005 86.4517 265.138 86.985C265.294 87.5183 269.981 85.3628 270.559 86.1628C271.137 86.9627 265.916 87.8072 265.827 88.2516C265.738 88.696 270.848 88.1183 270.559 89.0738C270.403 89.6071 266.005 89.496 266.183 90.0959C266.36 90.7181 269.715 91.3181 269.493 91.8959C269.27 92.4958 266.76 91.007 265.027 91.4514C263.295 91.8959 261.806 91.3181 259.274 92.8292C256.719 94.318 248.344 100.651 242.39 101.962C236.436 103.273 223.285 106.184 223.285 106.184L220.775 99.4511Z" fill="#F7A491"/>
<path d="M216.754 96.8952C217.309 96.6286 219.042 96.5841 221.085 96.6064C221.841 96.6064 222.907 96.6286 223.707 96.5841C226.706 96.4952 229.549 96.6286 229.549 96.6286C229.549 96.6286 231.06 103.917 229.794 105.784C229.794 105.784 218.064 107.45 218.353 108.273L216.754 96.8952Z" fill="#50BFA5"/>
<path d="M176.056 96.9398L177.077 95.651C177.077 95.651 177.699 94.6733 178.655 94.5844C179.61 94.4955 179.566 93.2955 178.566 93.4733C177.566 93.6511 176.944 93.8733 176.944 93.8733C176.944 93.8733 178.943 92.8511 178.966 92.7178C179.166 91.9623 178.055 91.6734 176.589 92.7845C175.1 93.8955 176.056 96.9398 176.056 96.9398Z" fill="#F7A491"/>
<path d="M40.4764 135.316C39.8321 135.672 39.3878 135.983 39.1879 136.138C39.1879 136.116 39.2101 136.094 39.2101 136.072C39.4323 135.849 40.1431 135.072 40.1654 135.072C41.1206 134.338 40.6097 133.561 39.7211 134.049C38.8325 134.538 38.2993 134.961 38.2993 134.961C38.2993 134.961 39.8544 133.449 39.8321 133.205C39.8099 132.427 38.6547 132.516 37.6106 134.027C36.6998 135.338 38.0327 137.649 38.4326 138.205C38.8102 139.005 39.5211 139.36 39.5211 139.36L39.7655 137.849C39.7655 137.849 40.0543 136.716 40.8985 136.338C41.7871 135.96 41.365 134.849 40.4764 135.316Z" fill="#F7A491"/>
<path d="M179.721 92.3177C179.721 92.3177 182.076 90.4289 182.453 91.2289C182.831 92.0289 182.676 93.7843 182.32 93.651C181.965 93.5177 182.009 92.2955 181.009 92.6066C180.721 92.6955 179.321 93.1399 179.721 92.3177Z" fill="#F7A491"/>
<path d="M124.072 95.7397L111.298 87.9622C110.01 87.1845 109.587 85.4734 110.387 84.1846L118.163 71.4073C118.94 70.1185 120.651 69.6963 121.939 70.4963L134.713 78.2737C136.001 79.0515 136.423 80.7625 135.624 82.0513L127.848 94.8286C127.049 96.1174 125.36 96.5396 124.072 95.7397Z" fill="#96D9C9"/>
<path d="M130.803 85.2959C131.27 84.8071 131.114 83.896 130.425 83.2738C127.36 80.5628 123.85 78.4073 120.073 76.8963C119.207 76.5407 118.318 76.8296 118.096 77.4963C116.319 82.7405 116.941 80.7628 116.163 83.8071C115.986 84.5182 116.385 85.2293 117.052 85.5181C117.763 85.807 118.607 85.4959 118.94 84.8071C119.118 84.4293 119.296 84.0293 119.473 83.6516C119.673 83.2071 120.251 83.0516 120.74 83.296C122.05 83.9627 123.294 84.7182 124.494 85.5626C124.938 85.8737 125.072 86.4737 124.761 86.8514C124.516 87.1847 124.25 87.5181 124.005 87.8514C123.539 88.4736 123.672 89.3402 124.272 89.8291C124.827 90.2957 125.649 90.3179 126.182 89.8513C126.738 89.318 129.826 86.3181 130.803 85.2959Z" fill="white"/>
<path d="M120.895 78.9184C121.05 79.0295 121.183 79.1629 121.272 79.3184L121.694 78.6073L120.783 78.0518L120.361 78.7629C120.561 78.7851 120.739 78.8296 120.895 78.9184Z" fill="#96D9C9"/>
<path d="M119.473 79.2738C119.584 79.1183 119.717 78.985 119.873 78.8961L119.162 78.4739L118.607 79.3849L119.317 79.8071C119.317 79.6294 119.362 79.4516 119.473 79.2738Z" fill="#96D9C9"/>
<path d="M119.806 80.7186C119.65 80.6075 119.517 80.4742 119.428 80.3187L119.006 81.0298L119.917 81.5853L120.339 80.8742C120.161 80.8742 119.984 80.8075 119.806 80.7186Z" fill="#96D9C9"/>
<path d="M121.406 79.8296C121.406 80.0074 121.361 80.1851 121.25 80.3629C121.139 80.5185 121.006 80.6518 120.85 80.7407L121.561 81.1629L122.117 80.2518L121.406 79.8296Z" fill="#96D9C9"/>
<path d="M120.362 80.4738C120.718 80.4738 121.006 80.1853 121.006 79.8294C121.006 79.4735 120.718 79.185 120.362 79.185C120.006 79.185 119.718 79.4735 119.718 79.8294C119.718 80.1853 120.006 80.4738 120.362 80.4738Z" fill="#96D9C9"/>
<path d="M127.804 85.8071C128.552 85.8071 129.159 85.2003 129.159 84.4516C129.159 83.703 128.552 83.0961 127.804 83.0961C127.056 83.0961 126.449 83.703 126.449 84.4516C126.449 85.2003 127.056 85.8071 127.804 85.8071Z" fill="#96D9C9"/>
<path d="M136.09 36.5646C136.09 36.5646 136.557 33.9203 139.312 32.6314C141.755 31.4981 144.399 32.7647 145.51 35.1646C146.798 37.9423 146.021 42.2977 141.355 47.9197C134.047 47.853 130.226 45.6309 128.937 42.8532C127.826 40.4533 128.559 37.609 131.025 36.4757C133.78 35.2091 136.09 36.5646 136.09 36.5646Z" fill="#F48C7F"/>
<path d="M47.496 24.6763L31.2567 32.4093C29.3462 33.3204 27.058 32.4982 26.1472 30.5872L21.7708 21.4542C20.86 19.5432 21.6819 17.2544 23.5924 16.3433L39.8318 8.61033C41.7423 7.69925 44.0304 8.52144 44.9413 10.4325L49.2954 19.5432C50.2285 21.4765 49.4065 23.7653 47.496 24.6763Z" fill="#FAE0B2"/>
<path d="M24.6365 25.6095L21.1487 35.9647L28.8796 30.2538L24.6365 25.6095Z" fill="#FAE0B2"/>
<path d="M30.368 21.5873L32.4118 20.5429C32.4118 20.5429 34.078 17.3208 33.8114 16.5875C33.567 15.8542 32.4118 14.6098 32.745 14.232C33.0561 13.8543 33.8558 13.2987 34.8333 13.9432C35.5442 14.4098 36.3883 16.9875 36.7216 17.0319C36.9215 17.0541 38.1211 16.4986 38.9875 16.0542C39.5651 15.7653 40.2316 15.832 40.7425 16.2097C41.098 16.4542 41.209 16.9208 41.0313 17.3208L40.7647 17.9208L41.3645 18.2319C41.8088 18.4541 41.9866 19.0096 41.7644 19.454L41.5423 19.9207L41.9199 20.0762C42.4087 20.2762 42.6308 20.8762 42.3642 21.3651L42.1421 21.7428L42.2309 21.8095C42.6086 22.0762 42.7197 22.6095 42.4753 23.0094L42.2531 23.3872L36.7882 26.1649C36.2773 26.4315 35.7219 26.5871 35.1443 26.6093L33.0561 27.2759C32.8339 27.3426 32.5895 27.2537 32.4785 27.0315L30.1237 22.2095C30.0348 21.9873 30.1236 21.7206 30.368 21.5873Z" fill="white"/>
<path d="M164.681 46.9863C176.944 44.2086 188.296 48.0529 190.007 55.5859C190.873 59.3635 189.14 63.3411 185.697 66.7188L193.206 76.6962L180.765 70.4297C177.922 72.0963 174.589 73.4296 170.902 74.274C158.639 77.0517 147.287 73.2074 145.576 65.6744C143.843 58.1636 152.396 49.7862 164.681 46.9863Z" fill="#FAE0B2"/>
<path d="M176.477 60.097C176.3 64.4746 172.612 67.8967 168.213 67.7189C163.837 67.5411 160.416 63.8524 160.594 59.4526C160.771 55.075 164.459 51.6529 168.858 51.8307C173.256 52.0085 176.655 55.6972 176.477 60.097Z" fill="#F7CC7F"/>
<path d="M164.259 60.8524C164.17 63.1857 165.992 65.1634 168.325 65.2745C170.657 65.3633 172.634 63.5412 172.745 61.208L164.259 60.8524Z" fill="#EFEFEF"/>
<path d="M10.3079 82.118L6.26469 82.918L6.75342 86.74L2.79912 87.7177L2.84355 91.4065L0 92.6287L0.622026 94.073L4.42083 92.4509L4.3764 88.9399L8.48621 87.9177L7.99747 84.1623L11.663 83.429L10.3079 82.118Z" fill="#F48C7F"/>
<path d="M280 113.494L278.867 109.517L275.113 110.339L273.824 106.473L270.137 106.806L268.693 104.073L267.315 104.784L269.226 108.45L272.736 108.139L274.069 112.161L277.756 111.361L278.778 114.961L280 113.494Z" fill="#F7CC7F"/>
<path d="M10.9742 39.7421L8.70828 40.431L7.19764 36.92L3.75428 37.52L2.19922 35.0756L0.955167 35.8756L3.0434 39.1421L6.30903 38.5644L7.88631 42.2309L11.2852 41.1865L10.9742 39.7421Z" fill="#50BFA5"/>
<path d="M94.8584 53.9864C94.0587 53.342 92.2148 52.8087 91.304 52.7198C90.3932 52.6309 86.3722 52.6309 85.8613 53.6086C85.3503 54.5642 89.549 57.2974 89.7711 58.4307C89.9933 59.5639 87.3275 77.1854 86.5722 80.6964C86.1945 82.4297 84.7283 85.674 83.3509 88.5183C85.3281 88.8294 87.7496 90.4515 89.2824 91.607C91.2373 87.3406 93.2145 82.5408 93.4811 80.2964C93.9698 75.7633 95.6582 54.6308 94.8584 53.9864Z" fill="#F7A491"/>
<path d="M106.499 23.5649C105.122 23.4538 97.9909 28.898 97.9909 28.898L97.6799 29.3202C97.6799 29.3202 107.321 30.9424 107.788 30.6535C108.987 29.8313 107.61 23.6538 106.499 23.5649ZM98.0132 29.0758C100.346 27.387 105.144 25.2982 106.166 24.876C106.699 25.8537 107.188 28.4314 107.033 29.498C105.9 29.4091 100.834 29.5202 98.0132 29.0758Z" fill="#0275BB"/>
<path d="M96.0582 19.0543C94.8142 15.7433 93.6145 15.8989 92.7482 16.01C91.8818 16.1211 88.0385 18.8543 88.394 20.9431C88.7494 23.0319 96.4581 29.165 96.4581 29.165L96.969 28.565C96.9913 28.565 97.3023 22.3653 96.0582 19.0543ZM89.5936 20.7431C89.4159 19.6987 92.0817 17.4766 92.9703 17.1877C93.1702 17.1655 93.348 17.1433 93.4813 17.1877C93.6368 17.2322 94.2366 17.5433 94.9475 19.4765C95.7472 21.6097 96.5692 26.5207 96.5692 28.4761C93.4813 25.8985 89.7935 21.632 89.5936 20.7431Z" fill="#0275BB"/>
<path d="M96.5471 30.4539L96.9692 30.565C97.3913 30.6761 97.8133 30.4539 97.9466 30.0317L98.3021 28.7873C98.4132 28.3651 98.191 27.9429 97.7689 27.8096L97.3468 27.6984C96.9247 27.5873 96.5026 27.8096 96.3694 28.2318L96.0139 29.4762C95.8806 29.8984 96.125 30.3206 96.5471 30.4539Z" fill="#0275BB"/>
<path d="M104.367 57.4524L77.7975 49.8527C76.3535 49.4528 75.4871 47.9861 75.7981 46.5195L80.5077 24.7649L115.119 34.6534L107.299 56.4969C106.988 57.408 105.678 57.8302 104.367 57.4524Z" fill="#F47458"/>
<path d="M115.208 39.7425L77.6199 29.0763L77.9087 26.543C78.0865 25.032 79.5749 24.032 81.0411 24.4542L115.008 34.2538C116.208 34.6094 116.941 35.6093 116.585 36.4537L115.208 39.7425Z" fill="#FAE0B2"/>
<path d="M97.8205 29.2965L97.1155 29.0952L95.652 34.2235L96.3569 34.4248L97.8205 29.2965Z" fill="#0275BB"/>
<path d="M97.2781 34.653L96.3809 34.3968L90.8866 53.6493L91.7838 53.9055L97.2781 34.653Z" fill="#0275BB"/>
<path d="M88.0163 53.9419L88.1052 52.8086C87.1943 52.542 86.1502 52.1642 85.5948 51.942L85.4393 51.0754C84.9728 49.8976 84.4397 50.7421 84.2842 51.0087C84.2842 51.0087 84.2397 52.5198 84.4174 52.6975C84.4174 52.6975 86.2169 54.5863 86.9722 55.2974C87.3499 55.653 88.5495 56.6307 88.5495 56.6307L89.5047 55.2974L88.0163 53.9419Z" fill="#F7A491"/>
</svg>
