<svg width="33" height="25" viewBox="0 0 33 25" fill="none" xmlns="http://www.w3.org/2000/svg">
<path opacity="0.4" fill-rule="evenodd" clip-rule="evenodd" d="M12.9318 18.6504C12.4861 18.886 12.4618 18.9732 12.4221 20.4774C12.383 21.9614 12.3413 22.1476 11.9577 22.5519C11.6981 22.8256 11.1839 23.0714 10.8695 23.0722C10.3652 23.0735 9.91011 23.4249 9.825 23.8785C9.76278 24.2103 9.94727 24.641 10.2355 24.8369C10.6601 25.1254 11.6444 25.0166 12.4576 24.5912C12.9311 24.3434 13.6138 23.6755 13.8884 23.1915C14.2523 22.5499 14.3481 22.0064 14.3481 20.5835C14.3481 19.4511 14.3355 19.3064 14.2161 19.0596C14.1202 18.8615 14.0093 18.7507 13.8113 18.6548C13.4761 18.4925 13.2328 18.4913 12.9318 18.6504ZM15.9248 18.668C15.4358 18.9484 15.4375 18.9376 15.4377 21.758C15.4377 24.5463 15.4391 24.5556 15.8796 24.8499C16.3359 25.1547 16.9993 24.9761 17.2478 24.4814C17.3488 24.2805 17.3599 24.0106 17.3599 21.758C17.3601 19.4462 17.3511 19.2409 17.2413 19.0344C17.0969 18.7631 16.703 18.5249 16.3988 18.5249C16.2754 18.5249 16.0622 18.5893 15.9248 18.668ZM18.9815 18.6561C18.7893 18.7512 18.6748 18.8669 18.581 19.0608C18.4622 19.3061 18.4495 19.4529 18.4495 20.5835C18.4495 22.0064 18.5453 22.5499 18.9093 23.1915C19.1838 23.6755 19.8666 24.3434 20.34 24.5912C21.1532 25.0166 22.1375 25.1254 22.5621 24.8369C22.8503 24.641 23.0348 24.2103 22.9726 23.8785C22.8875 23.4249 22.4324 23.0735 21.9282 23.0722C21.6137 23.0714 21.0995 22.8256 20.8399 22.5519C20.4563 22.1476 20.4146 21.9614 20.3755 20.4774C20.3357 18.9654 20.3117 18.8817 19.8521 18.6472C19.5396 18.4878 19.3168 18.4901 18.9815 18.6561Z" fill="#2C2B46"/>
<path fill-rule="evenodd" clip-rule="evenodd" d="M3.14462 0.0951491C2.95691 0.140585 2.55638 0.300092 2.25455 0.449665C1.29693 0.924212 0.571939 1.77372 0.175768 2.88546L0.0273481 3.30201L0.00786638 8.53324C-0.0141147 14.4204 -0.022702 14.2898 0.450435 15.2538C0.947796 16.2672 1.95104 17.0921 3.06932 17.4072C3.27811 17.4661 3.82013 17.5211 4.39908 17.5423L5.37637 17.578L5.37733 16.1756C5.37842 14.5782 5.435 14.2229 5.81022 13.4594C6.15602 12.7557 6.89184 12.0292 7.61933 11.6731C8.58861 11.1986 8.19987 11.2187 16.3989 11.2187C24.598 11.2187 24.2092 11.1986 25.1785 11.6731C25.906 12.0292 26.6418 12.7557 26.9876 13.4594C27.3628 14.2229 27.4194 14.5782 27.4205 16.1756L27.4215 17.578L28.3988 17.5423C28.9777 17.5211 29.5197 17.4661 29.7285 17.4072C30.8468 17.0921 31.8501 16.2672 32.3474 15.2538C32.8206 14.2898 32.812 14.4204 32.79 8.53324L32.7705 3.30201L32.6221 2.88546C32.2143 1.74116 31.4924 0.910114 30.4869 0.427685C30.1579 0.26978 29.7359 0.109376 29.5492 0.0711173C29.0157 -0.0380188 3.59936 -0.0148843 3.14462 0.0951491ZM23.3597 3.81866C23.8174 4.16081 23.945 4.65445 23.6902 5.09638C23.4439 5.5237 23.2451 5.58458 22.1665 5.5633C21.354 5.54728 21.216 5.52889 21.0672 5.4168C20.6121 5.07389 20.538 4.46239 20.8964 4.00681C21.1361 3.70209 21.3421 3.65294 22.3063 3.67056C23.0771 3.68459 23.2044 3.70247 23.3597 3.81866ZM27.9329 3.76675C28.0555 3.82834 28.2239 3.9797 28.3071 4.10307C28.5132 4.40894 28.4845 4.9793 28.2505 5.22974C27.9604 5.54029 27.8132 5.57701 26.8574 5.57701C26.0378 5.57701 25.9491 5.56535 25.7487 5.43154C25.1341 5.02095 25.1882 4.10973 25.8465 3.78386C26.2073 3.60532 27.589 3.59398 27.9329 3.76675ZM9.0363 13.2083C8.40994 13.3313 7.74397 13.8609 7.47866 14.4468C7.34152 14.7498 7.32947 14.873 7.31044 16.167L7.28993 17.5608H16.3989H25.5079L25.4874 16.167C25.4684 14.873 25.4563 14.7498 25.3192 14.4468C25.1502 14.0735 24.6896 13.5956 24.3118 13.4018C24.17 13.3289 23.8994 13.24 23.7103 13.2042C23.2851 13.1236 9.44811 13.1274 9.0363 13.2083Z" fill="#2C2B46"/>
</svg>
