<svg width="33" height="33" viewBox="0 0 33 33" fill="none" xmlns="http://www.w3.org/2000/svg">
<path opacity="0.4" fill-rule="evenodd" clip-rule="evenodd" d="M4.44967 0.102983C4.12726 0.266415 3.93262 0.588376 3.93262 0.958387C3.93262 1.3284 4.12726 1.65036 4.44967 1.81379C4.65636 1.9186 4.92346 1.92621 7.8445 1.91053C10.9324 1.89402 11.0196 1.89009 11.1929 1.76058C11.5125 1.52182 11.6293 1.30711 11.6293 0.958387C11.6293 0.60966 11.5125 0.394955 11.1929 0.156192C11.0196 0.0266852 10.9324 0.022751 7.8445 0.00624014C4.92346 -0.00943227 4.65636 -0.0018218 4.44967 0.102983ZM29.6572 0.100275C29.5338 0.164319 29.367 0.315303 29.2865 0.435845C29.1591 0.626622 29.1402 0.737168 29.1402 1.29041V1.92582L28.5438 1.92595C27.8523 1.92601 27.5819 2.02695 27.3524 2.37071C27.0457 2.82998 27.2254 3.49758 27.7231 3.74769C27.8883 3.83076 28.1048 3.86049 28.5438 3.86056L29.1402 3.86068V4.49609C29.1402 5.04934 29.1591 5.15988 29.2865 5.35066C29.6789 5.93828 30.4573 5.92461 30.9069 5.32222C31.0121 5.18117 31.0426 5.02283 31.0631 4.5097L31.0887 3.87229L31.7216 3.85037C32.2381 3.8325 32.3873 3.80399 32.5324 3.69545C32.8519 3.45656 32.9687 3.24191 32.9687 2.89325C32.9687 2.54459 32.8519 2.32995 32.5324 2.09106C32.3873 1.98251 32.2381 1.954 31.7216 1.93614L31.0887 1.91421L31.0631 1.2768C31.0358 0.595729 30.9699 0.433845 30.6102 0.165222C30.3717 -0.012915 29.9331 -0.0427764 29.6572 0.100275ZM0.517035 3.97271C0.194623 4.13614 0 4.45811 0 4.82812C0 5.19813 0.194623 5.52009 0.517035 5.68352C0.723788 5.78833 0.992366 5.79594 3.9441 5.78026C7.06455 5.76375 7.15132 5.75988 7.32474 5.63031C7.64432 5.39155 7.76114 5.17684 7.76114 4.82812C7.76114 4.47939 7.64432 4.26468 7.32474 4.02592C7.15132 3.89635 7.06455 3.89248 3.9441 3.87597C0.992366 3.8603 0.723788 3.86791 0.517035 3.97271ZM23.7905 27.3174C23.6671 27.3814 23.5003 27.5324 23.4198 27.6529C23.2924 27.8437 23.2734 27.9543 23.2734 28.5075V29.1429L22.6771 29.143C21.9856 29.1431 21.7152 29.244 21.4857 29.5878C21.179 30.0471 21.3587 30.7147 21.8564 30.9648C22.0216 31.0479 22.2381 31.0776 22.6771 31.0777L23.2734 31.0778V31.7132C23.2734 32.2664 23.2924 32.377 23.4198 32.5678C23.8122 33.1554 24.5906 33.1417 25.0402 32.5393C25.1454 32.3983 25.1759 32.2399 25.1964 31.7268L25.222 31.0894L25.8549 31.0675C26.3714 31.0496 26.5206 31.0211 26.6657 30.9125C26.9852 30.6737 27.102 30.459 27.102 30.1104C27.102 29.7617 26.9852 29.547 26.6657 29.3082C26.5206 29.1996 26.3714 29.1711 25.8549 29.1532L25.222 29.1313L25.1964 28.4939C25.1691 27.8128 25.1031 27.6509 24.7435 27.3823C24.505 27.2042 24.0664 27.1743 23.7905 27.3174Z" fill="#2C2B46"/>
<path fill-rule="evenodd" clip-rule="evenodd" d="M16.9231 1.51987C16.0868 1.63306 14.9255 2.08485 14.1672 2.59217C13.374 3.12271 9.97814 6.55678 9.63864 7.17148C9.24087 7.89196 9.08034 8.48616 9.04346 9.3751L9.01129 10.149L11.71 7.46887C14.5689 4.62978 14.6811 4.53633 15.5326 4.28609C15.9873 4.15251 16.8918 4.15251 17.3465 4.28609C18.2621 4.55516 19.0504 5.21553 19.4591 6.05565L19.6959 6.54246L20.1469 6.38625C20.7875 6.16432 21.6411 6.16568 22.2806 6.38967C24.2221 7.06952 25.0965 9.09048 24.2839 11.0197C24.2535 11.0919 24.3698 11.1764 24.7414 11.3523C26.3729 12.1243 27.0705 14.065 26.3401 15.7997C26.3058 15.8812 26.4039 15.9548 26.7933 16.1398C27.3966 16.4264 28.0491 17.0559 28.3176 17.6101C28.8241 18.6559 28.8133 19.7757 28.2869 20.7856C28.1231 21.0997 27.6807 21.5829 26.0647 23.2125C24.955 24.3315 24.047 25.2713 24.047 25.3008C24.047 25.3304 24.4314 25.3405 24.9012 25.3234C25.6047 25.2977 25.8464 25.2614 26.2712 25.1177C27.2566 24.7844 27.535 24.5693 29.4835 22.6357C31.4102 20.7237 31.7566 20.3192 32.196 19.4686C33.1297 17.6607 33.1938 15.3889 32.3627 13.5551C31.8547 12.4343 31.8499 12.429 26.9866 7.54865C21.9957 2.54013 21.9237 2.47621 20.7236 1.98585C19.8224 1.61758 19.0269 1.47227 17.9767 1.48408C17.5036 1.48937 17.0295 1.50549 16.9231 1.51987ZM15.8195 6.23366C15.709 6.29422 13.3881 8.55743 10.662 11.2629C5.93145 15.9578 5.70337 16.174 5.66088 16.0034C5.63638 15.9051 5.54264 14.4896 5.45264 12.8579L5.28902 9.89107L5.07814 9.4743C4.47038 8.27281 2.85665 8.04282 1.96472 9.0305C1.57339 9.46385 1.49673 9.71886 1.38475 10.9607C1.19733 13.0384 1.07271 14.0677 0.54632 17.8885C0.0470048 21.5126 0.036439 21.6261 0.0341826 23.4029C0.0324419 24.7726 0.0524903 25.1445 0.153836 25.628C0.519249 27.371 1.30255 28.7644 2.70353 30.1634C4.06468 31.5227 5.7227 32.4117 7.67173 32.8274C8.55825 33.0164 10.35 33.0356 11.2642 32.8658C12.5563 32.6258 13.8629 32.0962 14.9842 31.3579C15.5725 30.9706 16.1452 30.4197 21.0647 25.5076C24.2256 22.3516 26.5416 19.9898 26.6055 19.8574C26.6659 19.7323 26.7267 19.4557 26.7406 19.2429C26.7916 18.4642 26.2205 17.806 25.4375 17.7411C24.7828 17.6868 24.7783 17.6901 22.4675 19.9871C20.1811 22.2596 20.1884 22.2541 19.6373 22.1507C19.0252 22.0358 18.7142 21.348 19.014 20.7721C19.0825 20.6405 20.3329 19.3429 21.7928 17.8885C23.5567 16.1311 24.4876 15.1576 24.5679 14.9862C24.8149 14.4593 24.6792 13.7178 24.2646 13.3289C23.8768 12.9651 23.2064 12.8468 22.7072 13.0541C22.5441 13.1218 21.5816 14.0374 19.6953 15.9192C17.2714 18.3372 16.8927 18.6903 16.6813 18.7291C15.9198 18.869 15.3631 18.3122 15.5024 17.5499C15.5413 17.3373 15.9623 16.8908 18.9843 13.8575C20.875 11.9598 22.4643 10.32 22.5161 10.2135C22.6651 9.90719 22.6963 9.62251 22.6204 9.25998C22.5625 8.98342 22.4898 8.86475 22.2113 8.59226C21.7141 8.1057 21.1591 8.01251 20.5656 8.31589C20.4415 8.37936 18.8459 9.92983 17.0198 11.7614C15.1937 13.593 13.592 15.1477 13.4605 15.2163C12.8848 15.5163 12.1972 15.2052 12.0824 14.5927C11.9768 14.0294 11.9157 14.1049 14.8945 11.1165C16.7755 9.22941 17.6907 8.26655 17.7584 8.10338C18.0563 7.38535 17.7074 6.51144 17.0057 6.21824C16.6873 6.08519 16.0759 6.09312 15.8195 6.23366Z" fill="#2C2B46"/>
</svg>
