<svg width="14" height="14" viewBox="0 0 14 14" fill="none" xmlns="http://www.w3.org/2000/svg">
<path fill-rule="evenodd" clip-rule="evenodd" d="M8.47915 2.22106C9.16256 1.53764 10.2706 1.53764 10.954 2.22106L11.779 3.04602C12.4624 3.72943 12.4624 4.83747 11.779 5.52089L5.71668 11.5832C5.63525 11.6646 5.53153 11.7201 5.4186 11.7427L2.32501 12.3614C1.91684 12.4431 1.55697 12.0832 1.63861 11.675L2.25732 8.58143C2.27991 8.4685 2.33542 8.36479 2.41685 8.28335L8.47915 2.22106ZM10.1291 3.04602L10.954 3.87097C11.1818 4.09878 11.1818 4.46813 10.954 4.69593L10.1291 5.52089L8.47914 3.87098L9.3041 3.04602C9.53191 2.81821 9.90126 2.81821 10.1291 3.04602ZM7.65419 4.69593L3.3667 8.98342L2.95422 11.0458L5.01661 10.6333L9.3041 6.34585L7.65419 4.69593Z" fill="#6759FF"/>
</svg>
