<svg width="28" height="28" viewBox="0 0 28 28" fill="none" xmlns="http://www.w3.org/2000/svg">
<path opacity="0.4" fill-rule="evenodd" clip-rule="evenodd" d="M11.8366 5.65598C11.3762 5.77119 11.0315 5.96792 10.6844 6.31377C10.3268 6.67001 10.1107 7.06228 10.0111 7.53575C9.97421 7.71105 9.95015 8.46169 9.95015 9.43585V11.0462H18.9722H27.9943V9.43585C27.9943 8.44216 27.9706 7.71455 27.9323 7.53575C27.7308 6.59395 26.9735 5.8362 26.0369 5.63925C25.5985 5.547 12.2089 5.5628 11.8366 5.65598ZM20.9968 7.60213C21.2394 7.72592 21.4328 8.04093 21.4328 8.31225C21.4328 8.73016 21.0286 9.13244 20.6086 9.13244C20.3543 9.13244 20.0165 8.91979 19.8962 8.68396C19.6942 8.28813 19.821 7.856 20.2076 7.62192C20.4694 7.46346 20.713 7.45734 20.9968 7.60213ZM24.2776 7.60213C24.5202 7.72592 24.7136 8.04093 24.7136 8.31225C24.7136 8.73016 24.3093 9.13244 23.8893 9.13244C23.635 9.13244 23.2972 8.91979 23.1769 8.68396C22.975 8.28813 23.1017 7.856 23.4884 7.62192C23.7502 7.46346 23.9937 7.45734 24.2776 7.60213Z" fill="#2C2B46"/>
<path fill-rule="evenodd" clip-rule="evenodd" d="M1.88644 0.0783267C1.42604 0.193536 1.08139 0.390272 0.734233 0.736119C0.376685 1.09236 0.160538 1.48463 0.060967 1.95809C0.01952 2.15516 0 3.4632 0 6.04538V9.84291H4.15563H8.31126V8.74703C8.31126 7.53533 8.37748 7.06318 8.6331 6.45175C9.02882 5.50531 9.86028 4.67265 10.8144 4.26731C11.5383 3.9598 11.7861 3.93754 14.4877 3.93754H16.9506V3.09269C16.9506 2.62803 16.9227 2.11748 16.8886 1.95809C16.687 1.0163 15.9297 0.25855 14.9931 0.0615948C14.5555 -0.0304852 2.25842 -0.0147376 1.88644 0.0783267ZM4.48513 4.48505C4.62407 4.55591 4.74021 4.67205 4.81108 4.81099C4.91196 5.00882 4.92114 5.13185 4.92114 6.28875C4.92114 7.44566 4.91196 7.56869 4.81108 7.76652C4.68663 8.01044 4.37194 8.20253 4.09691 8.20253C3.84259 8.20253 3.50478 7.98988 3.38449 7.75405C3.2912 7.5712 3.28098 7.42248 3.28306 6.27727C3.28563 4.83412 3.30761 4.73991 3.69594 4.50484C3.95775 4.34638 4.20129 4.34025 4.48513 4.48505ZM0 18.6163C0 23.727 0.0176086 25.8314 0.0620082 26.039C0.263064 26.9784 1.01807 27.7334 1.95746 27.9345C2.15606 27.9769 3.32986 27.9965 5.68868 27.9965H9.13008L8.94002 27.6993C8.74531 27.3949 8.58384 27.0308 8.4292 26.5475C8.35123 26.3035 8.33997 25.4763 8.32521 18.8787L8.30859 11.4833H4.15432H0V18.6163ZM9.95164 19.2177C9.95164 23.8801 9.96942 25.8321 10.0137 26.039C10.2147 26.9784 10.9697 27.7334 11.9091 27.9345C12.3156 28.0214 25.6255 28.0224 26.0384 27.9354C26.9663 27.74 27.7412 26.9653 27.9351 26.039C27.9776 25.8361 27.9958 23.7917 27.9958 19.2177V12.6862H18.9737H9.95164V19.2177ZM4.48513 13.2337C4.62407 13.3046 4.74021 13.4207 4.81108 13.5597C4.91633 13.766 4.92114 13.8781 4.92114 16.131C4.92114 18.3839 4.91633 18.496 4.81108 18.7024C4.68663 18.9463 4.37194 19.1384 4.09691 19.1384C3.84259 19.1384 3.50478 18.9258 3.38449 18.6899C3.28727 18.4994 3.28093 18.3383 3.28306 16.1196C3.28563 13.4554 3.2783 13.5064 3.69594 13.2535C3.95775 13.0951 4.20129 13.089 4.48513 13.2337ZM20.2587 14.487C22.0807 14.9623 23.5086 16.3986 24.0128 18.2635C24.1168 18.648 24.1385 18.8653 24.1385 19.5212C24.1385 20.177 24.1168 20.3943 24.0128 20.7788C23.509 22.6424 22.1007 24.0606 20.2587 24.5597C19.6114 24.7351 18.3679 24.7348 17.7161 24.5591C15.8478 24.0554 14.4433 22.658 13.9324 20.7943C13.7643 20.1809 13.7643 18.8615 13.9324 18.248C14.4974 16.1868 16.1575 14.7064 18.2902 14.3622C18.6692 14.301 19.827 14.3744 20.2587 14.487ZM18.2082 16.052C17.2267 16.2628 16.2567 17.0246 15.8097 17.9355C15.553 18.4586 15.4215 18.9958 15.4215 19.5212C15.4215 20.8284 16.219 22.1115 17.388 22.6852C18.4409 23.2018 19.5065 23.2018 20.5594 22.6852C21.4824 22.2323 22.2358 21.2635 22.4459 20.2593C22.6132 19.4597 22.5123 18.6988 22.1378 17.9355C21.8178 17.2833 21.2116 16.6771 20.5594 16.3571C19.799 15.984 19.0049 15.8809 18.2082 16.052Z" fill="#2C2B46"/>
</svg>
