<svg width="16" height="16" viewBox="0 0 16 16" fill="none" xmlns="http://www.w3.org/2000/svg">
<path fill-rule="evenodd" clip-rule="evenodd" d="M14.6666 8.00016C14.6666 11.6821 11.6819 14.6668 7.99998 14.6668C4.31808 14.6668 1.33331 11.6821 1.33331 8.00016C1.33331 4.31826 4.31808 1.3335 7.99998 1.3335C11.6819 1.3335 14.6666 4.31826 14.6666 8.00016ZM7.99998 7.3335C8.36817 7.3335 8.66665 7.63197 8.66665 8.00016V11.3341C8.66665 11.7023 8.36817 12.0008 7.99998 12.0008C7.63179 12.0008 7.33331 11.7023 7.33331 11.3341V8.00016C7.33331 7.63197 7.63179 7.3335 7.99998 7.3335ZM7.99998 6.00016C8.36817 6.00016 8.66665 5.70169 8.66665 5.3335C8.66665 4.96531 8.36817 4.66683 7.99998 4.66683C7.63179 4.66683 7.33331 4.96531 7.33331 5.3335C7.33331 5.70169 7.63179 6.00016 7.99998 6.00016Z" fill="#33383F"/>
</svg>
