<svg width="20" height="20" viewBox="0 0 20 20" fill="none" xmlns="http://www.w3.org/2000/svg">
<path fill-rule="evenodd" clip-rule="evenodd" d="M4.16667 1.6665C2.78596 1.6665 1.66667 2.78579 1.66667 4.1665V15.8332C1.66667 17.2139 2.78596 18.3332 4.16667 18.3332H15.8333C17.2141 18.3332 18.3333 17.2139 18.3333 15.8332V4.1665C18.3333 2.78579 17.2141 1.6665 15.8333 1.6665H4.16667ZM11.6667 3.33317H8.33334V6.6665H11.6667V3.33317ZM13.3333 3.33317V6.6665H16.6667V4.1665C16.6667 3.70627 16.2936 3.33317 15.8333 3.33317H13.3333ZM11.6667 8.33317H8.33334V11.6665H11.6667V8.33317ZM13.3333 11.6665V8.33317H16.6667V11.6665H13.3333ZM11.6667 13.3332H8.33334V16.6665H11.6667V13.3332ZM13.3333 16.6665V13.3332H16.6667V15.8332C16.6667 16.2934 16.2936 16.6665 15.8333 16.6665H13.3333ZM4.16667 3.33317H6.66667V6.6665H3.33334V4.1665C3.33334 3.70627 3.70643 3.33317 4.16667 3.33317ZM3.33334 8.33317H6.66667V11.6665H3.33334V8.33317ZM3.33334 13.3332H6.66667V16.6665H4.16667C3.70643 16.6665 3.33334 16.2934 3.33334 15.8332V13.3332Z" fill="#9A9FA5"/>
</svg>
