<svg width="80" height="95" viewBox="0 0 80 95" fill="none" xmlns="http://www.w3.org/2000/svg">
<path d="M54.7501 16.7252C50.4159 12.9888 44.9359 10.5477 38.9079 9.99974" stroke="#0275BB" stroke-width="3" stroke-miterlimit="10" stroke-linecap="round" stroke-linejoin="round"/>
<path d="M14.1484 68.312C10.2127 68.312 7.02436 71.5003 7.02436 75.436V81.9622H1.24543V75.436C1.24543 71.8491 3.91071 68.86 7.34818 68.3867C7.672 68.3369 8.02073 68.312 8.36945 68.312H14.1484Z" fill="#E5E2FF" fill-opacity="0.5"/>
<path d="M38.908 10.0241C24.4607 11.3443 13.152 23.475 13.152 38.2711V68.3364H8.36941C8.02069 68.3364 7.67196 68.3613 7.34814 68.4111V38.2711C7.34814 22.6032 20.0518 9.92444 35.6948 9.92444H36.2677C37.1644 9.89953 38.0362 9.92444 38.908 10.0241Z" fill="#E5E2FF" fill-opacity="0.5"/>
<path d="M7.02436 81.9867H1.24543V75.4605C1.24543 71.8736 3.91071 68.8845 7.34818 68.4112C7.672 68.3614 8.02073 68.3365 8.36945 68.3365H14.1484" stroke="#0275BB" stroke-width="2.48198" stroke-miterlimit="10" stroke-linecap="round" stroke-linejoin="round"/>
<path d="M70.4434 43.2215V68.3122" stroke="#0275BB" stroke-width="3" stroke-miterlimit="10" stroke-linecap="round" stroke-linejoin="round"/>
<path d="M13.152 68.3113H8.36941C8.02069 68.3113 7.67196 68.3362 7.34814 68.386V38.2459C7.34814 22.578 20.0518 9.89928 35.6948 9.89928H36.2677C37.1395 9.89928 38.0113 9.9491 38.8831 10.0238" stroke="#0275BB" stroke-width="3" stroke-miterlimit="10" stroke-linecap="round" stroke-linejoin="round"/>
<path d="M14.1485 68.312H69.397C73.3327 68.312 76.521 71.5003 76.521 75.436V81.9622H7.02447" stroke="#0275BB" stroke-width="3" stroke-miterlimit="10" stroke-linecap="round" stroke-linejoin="round"/>
<path d="M32.9297 9.89979V4.54432C32.9297 2.8754 34.2997 1.5054 35.9686 1.5054H36.0184C37.6873 1.5054 39.0573 2.8754 39.0573 4.54432V9.89979" stroke="#0275BB" stroke-width="3" stroke-miterlimit="10" stroke-linecap="round" stroke-linejoin="round"/>
<path d="M45.4349 84.054C45.4349 89.26 41.2003 93.4945 35.9943 93.4945C30.7883 93.4945 26.5538 89.26 26.5538 84.054C26.5538 83.3316 26.6285 82.6591 26.7779 81.9865H45.2107C45.3602 82.6342 45.4349 83.3316 45.4349 84.054Z" stroke="#0275BB" stroke-width="3" stroke-miterlimit="10" stroke-linecap="round" stroke-linejoin="round"/>
<path d="M14.0737 42.4305V58.2479" stroke="#0275BB" stroke-width="3" stroke-miterlimit="10" stroke-linecap="round" stroke-linejoin="round"/>
<path d="M14.0737 35.4063V37.1001" stroke="#0275BB" stroke-width="3" stroke-miterlimit="10" stroke-linecap="round" stroke-linejoin="round"/>
<path d="M57.3165 29.752C57.3414 27.9087 57.5157 26.2896 58.1883 24.7452C58.811 23.3254 59.7327 22.1547 61.2272 21.5817C63.6185 20.6601 66.5079 21.233 68.0523 24.0228C68.7 25.1936 69.0238 26.4639 69.1732 27.7841C69.3227 28.9798 69.3227 30.1754 69.1732 31.3461C68.974 32.9652 68.5505 34.5096 67.5292 35.8298C66.3585 37.3492 64.7892 37.9969 62.8961 37.8723C60.6792 37.7229 59.2345 36.4774 58.3128 34.5594C57.7648 33.4634 57.5157 32.2927 57.4161 31.0721C57.3663 30.5989 57.3414 30.0758 57.3165 29.752ZM59.7327 29.5527C59.7576 30.6985 59.8323 31.8692 60.181 32.9652C60.4301 33.7623 60.8287 34.5096 61.4763 35.0576C62.5972 36.0042 64.6896 35.9792 65.7607 34.3601C66.4581 33.314 66.7321 32.1183 66.8318 30.8978C66.9314 29.752 66.9314 28.6061 66.7321 27.4603C66.5827 26.4639 66.3087 25.5174 65.7108 24.6954C64.8141 23.425 63.1452 23.0265 61.825 23.7987C61.0279 24.2719 60.5547 25.0192 60.2557 25.8661C59.8323 27.0618 59.7327 28.3072 59.7327 29.5527Z" fill="#1AE5BE"/>
<path d="M49.8188 36.2532C48.7228 34.1608 48.1001 31.7696 48.1001 29.2288C48.1001 20.9092 54.8504 14.1837 63.1452 14.1837C71.4399 14.1837 78.1903 20.9341 78.1903 29.2288C78.1903 37.5236 71.4399 44.274 63.1452 44.274C60.2557 44.274 57.5655 43.452 55.249 42.057" stroke="#1AE5BE" stroke-width="3" stroke-miterlimit="10" stroke-linecap="round" stroke-linejoin="round"/>
</svg>
