<svg width="20" height="20" viewBox="0 0 20 20" fill="none" xmlns="http://www.w3.org/2000/svg">
<path fill-rule="evenodd" clip-rule="evenodd" d="M4.16669 17.5001C4.16669 17.0398 4.53978 16.6667 5.00002 16.6667H15C15.4603 16.6667 15.8334 17.0398 15.8334 17.5001C15.8334 17.9603 15.4603 18.3334 15 18.3334H5.00002C4.53978 18.3334 4.16669 17.9603 4.16669 17.5001Z" fill="#393F33"/>
<path fill-rule="evenodd" clip-rule="evenodd" d="M5.00002 1.66675C5.46026 1.66675 5.83335 2.03984 5.83335 2.50008V9.16675C5.83335 11.4679 7.69883 13.3334 10 13.3334C12.3012 13.3334 14.1667 11.4679 14.1667 9.16675V2.50008C14.1667 2.03984 14.5398 1.66675 15 1.66675C15.4603 1.66675 15.8334 2.03984 15.8334 2.50008V9.16675C15.8334 12.3884 13.2217 15.0001 10 15.0001C6.77836 15.0001 4.16669 12.3884 4.16669 9.16675V2.50008C4.16669 2.03984 4.53978 1.66675 5.00002 1.66675Z" fill="#393F33"/>
</svg>
