<svg width="20" height="20" viewBox="0 0 20 20" fill="none" xmlns="http://www.w3.org/2000/svg">
<path fill-rule="evenodd" clip-rule="evenodd" d="M5.83334 5.83333C5.83334 5.3731 6.20643 5 6.66667 5H16.6667C17.1269 5 17.5 5.3731 17.5 5.83333C17.5 6.29357 17.1269 6.66667 16.6667 6.66667H6.66667C6.20643 6.66667 5.83334 6.29357 5.83334 5.83333Z" fill="#0275BB"/>
<path fill-rule="evenodd" clip-rule="evenodd" d="M5.83334 9.99984C5.83334 9.5396 6.20643 9.1665 6.66667 9.1665H16.6667C17.1269 9.1665 17.5 9.5396 17.5 9.99984C17.5 10.4601 17.1269 10.8332 16.6667 10.8332H6.66667C6.20643 10.8332 5.83334 10.4601 5.83334 9.99984Z" fill="#0275BB"/>
<path fill-rule="evenodd" clip-rule="evenodd" d="M5.83334 14.1668C5.83334 13.7066 6.20643 13.3335 6.66667 13.3335H16.6667C17.1269 13.3335 17.5 13.7066 17.5 14.1668C17.5 14.6271 17.1269 15.0002 16.6667 15.0002H6.66667C6.20643 15.0002 5.83334 14.6271 5.83334 14.1668Z" fill="#0275BB"/>
<path d="M4.16667 5.83333C4.16667 6.29357 3.79357 6.66667 3.33333 6.66667C2.8731 6.66667 2.5 6.29357 2.5 5.83333C2.5 5.3731 2.8731 5 3.33333 5C3.79357 5 4.16667 5.3731 4.16667 5.83333Z" fill="#0275BB"/>
<path d="M4.16667 9.99984C4.16667 10.4601 3.79357 10.8332 3.33333 10.8332C2.8731 10.8332 2.5 10.4601 2.5 9.99984C2.5 9.5396 2.8731 9.1665 3.33333 9.1665C3.79357 9.1665 4.16667 9.5396 4.16667 9.99984Z" fill="#0275BB"/>
<path d="M4.16667 14.1668C4.16667 14.6271 3.79357 15.0002 3.33333 15.0002C2.8731 15.0002 2.5 14.6271 2.5 14.1668C2.5 13.7066 2.8731 13.3335 3.33333 13.3335C3.79357 13.3335 4.16667 13.7066 4.16667 14.1668Z" fill="#0275BB"/>
</svg>
