<svg width="30" height="29" viewBox="0 0 30 29" fill="none" xmlns="http://www.w3.org/2000/svg">
<path opacity="0.4" fill-rule="evenodd" clip-rule="evenodd" d="M25.98 1.53373L23.7085 2.28771V7.12975V11.9719L25.9748 12.7252C27.9055 13.367 28.2789 13.4744 28.4958 13.4499C28.7978 13.4159 29.001 13.2776 29.1458 13.0077C29.2467 12.8195 29.2516 12.549 29.2516 7.11769V1.42504L29.123 1.23612C29.0523 1.13223 28.9279 0.997938 28.8466 0.937764C28.5302 0.703468 28.3994 0.73067 25.98 1.53373Z" fill="#2C2B46"/>
<path fill-rule="evenodd" clip-rule="evenodd" d="M6.05541 0.067423C5.45418 0.172685 4.53232 0.478584 3.9835 0.754996C2.64698 1.428 1.3779 2.69325 0.720898 4.00765C-0.611275 6.67291 -0.0608484 9.97535 2.07205 12.1148C3.34873 13.3954 4.94737 14.1302 6.74842 14.2639C7.77555 14.3402 7.13541 14.4392 17.9933 12.5252C20.0519 12.1622 21.7941 11.8519 21.8649 11.8355L21.9934 11.8058V7.12099C21.9934 4.54431 21.973 2.43616 21.9481 2.43616C21.9232 2.43616 18.8438 1.8939 15.105 1.23119C8.54541 0.0685087 8.27608 0.0254783 7.42136 0.00479166C6.80899 -0.0100661 6.38737 0.00930615 6.05541 0.067423ZM7.79657 4.49796C8.29219 4.58819 8.82856 4.87243 9.19252 5.23776C10.2519 6.30095 10.2541 7.95583 9.19744 9.01245C8.13483 10.0751 6.47931 10.0751 5.4167 9.01245C4.73878 8.33453 4.48723 7.44055 4.7093 6.49845C4.93891 5.52435 5.74512 4.73546 6.73562 4.51556C7.14032 4.42573 7.37821 4.42179 7.79657 4.49796ZM6.99871 6.20992C6.78448 6.27404 6.51395 6.53005 6.41429 6.76309C6.15422 7.37089 6.63064 8.09006 7.29507 8.09263C7.91356 8.09498 8.36923 7.53775 8.25346 6.9207C8.20254 6.64926 7.86682 6.2829 7.60149 6.20918C7.35811 6.14158 7.22655 6.14175 6.99871 6.20992ZM9.9929 15.6618L6.99277 16.1891L7.01106 16.3272C7.10724 17.0548 8.02442 22.1345 8.10002 22.3586C8.25105 22.806 8.55786 23.2736 8.92337 23.6133C9.28515 23.9494 9.93587 24.2942 10.3264 24.3565C10.6041 24.401 10.5967 24.3891 10.7901 25.0943C11.2115 26.6309 12.4339 28.0015 13.9231 28.6073C14.6866 28.9179 15.0314 28.9782 16.0217 28.9746C16.8446 28.9717 16.9863 28.956 17.4379 28.8183C19.3591 28.2326 20.7244 26.8188 21.2599 24.8605C21.3723 24.4492 21.3865 24.2211 21.417 22.3227C21.4502 20.2623 21.4521 20.2343 21.5846 20.0214C21.762 19.7359 22.021 19.5454 22.3516 19.457C22.8379 19.3269 23.3707 19.5569 23.6595 20.0214L23.7935 20.2369L23.8221 24.3559L23.8507 28.4749L24.0072 28.6801C24.1914 28.9215 24.4836 29.0347 24.8096 28.991C25.0915 28.9532 25.2904 28.8122 25.4307 28.5506C25.5307 28.364 25.5364 28.1369 25.5364 24.3408C25.5364 21.6322 25.5159 20.2299 25.4733 20.0254C25.3604 19.4844 25.0951 19.0135 24.656 18.5752C23.9159 17.8364 22.9697 17.553 22.0035 17.7808C21.0084 18.0155 20.2225 18.711 19.8644 19.6742C19.7478 19.9876 19.738 20.1395 19.7057 22.1227C19.6733 24.1141 19.6638 24.2604 19.5416 24.6371C19.1575 25.821 18.2835 26.7115 17.0946 27.13C16.5758 27.3127 15.735 27.3384 15.1462 27.1895C13.8011 26.8493 12.8143 25.9138 12.428 24.6124C12.3009 24.1842 12.3047 24.1696 12.5787 24.0301C12.7123 23.962 13.004 23.7237 13.2269 23.5003C13.7138 23.0125 13.9671 22.5243 14.0855 21.8462C14.1841 21.2815 14.1967 21.3828 13.5921 17.8801C13.3412 16.4267 13.1359 15.2117 13.1359 15.18C13.1359 15.1038 13.3848 15.0656 9.9929 15.6618Z" fill="#2C2B46"/>
</svg>
