<svg width="20" height="24" viewBox="0 0 20 24" fill="none" xmlns="http://www.w3.org/2000/svg">
<path d="M16.9509 12.6722C16.9735 15.0331 18.3459 16.3771 19.3258 17.0375C19.8469 17.3886 20.1591 18.0083 19.9163 18.5767C19.6403 19.2228 19.2035 20.1035 18.5714 20.9992C17.5324 22.4714 16.4542 23.9382 14.7556 23.9685C13.0866 23.9984 12.5499 23.009 10.6417 23.009C8.73409 23.009 8.13781 23.9382 6.55788 23.9984C4.9183 24.0586 3.66974 22.4065 2.62223 20.9396C0.481666 17.9392 -1.15417 12.4612 1.04234 8.7635C2.13352 6.92719 4.08354 5.76436 6.20011 5.73454C7.81013 5.70477 9.32975 6.7847 10.314 6.7847C11.2977 6.7847 13.1443 5.48598 15.0857 5.67672C15.753 5.70364 17.4103 5.90091 18.7928 7.12122C19.3179 7.58464 19.1309 8.37224 18.6245 8.8548C17.8543 9.58874 16.934 10.8478 16.9509 12.6722ZM13.8141 3.6917C14.4527 2.94231 14.9381 1.97736 15.0883 0.957796C15.181 0.329118 14.5942 -0.153176 13.9719 0.0451592C13.0263 0.346568 12.0772 0.940396 11.4388 1.6647C10.8209 2.35733 10.2618 3.36861 10.1197 4.42739C10.0438 4.99306 10.5442 5.45254 11.1194 5.33263C12.1679 5.11404 13.1523 4.46884 13.8141 3.6917Z" fill="#1A1D1F"/>
</svg>
